<?xml version="1.0" encoding="UTF-8"?>
<svg width="16px" height="16px" viewBox="0 0 16 16" version="1.1" xmlns="http://www.w3.org/2000/svg" xmlns:xlink="http://www.w3.org/1999/xlink">
    <!-- Generator: Sketch 55 (78076) - https://sketchapp.com -->
    <title>favicon-16x16</title>
    <desc>Created with Sketch.</desc>
    <g id="favicon-16x16" stroke="none" stroke-width="1" fill="none" fill-rule="evenodd">
        <path d="M12.4351337,5.22439571 C11.5298283,3.75501841 9.91997559,2.795838 8.08891017,2.795838 C5.25178149,2.795838 2.95783606,5.12245878 2.95783606,8 C2.95783606,10.8977749 5.25178149,13.2243957 8.08891017,13.2243957 C9.91997559,13.2243957 11.5298283,12.2449816 12.4351337,10.795838 L14.7692308,12.2652153 C13.3606412,14.5303666 10.8858872,16 8.08891017,16 C3.62197922,16 -2.30926389e-14,12.5305587 -2.30926389e-14,8 C-2.30926389e-14,3.46944133 3.62197922,0 8.08891017,0 C10.8858872,0 13.3606412,1.48961101 14.7692308,3.7347847 L12.4351337,5.22439571 Z M8,5.53846154 C9.35950754,5.53846154 10.4615385,6.64049246 10.4615385,8 C10.4615385,9.35950754 9.35950754,10.4615385 8,10.4615385 C6.64049246,10.4615385 5.53846154,9.35950754 5.53846154,8 C5.53846154,6.64049246 6.64049246,5.53846154 8,5.53846154 Z" id="Combined-Shape" fill="#07C39F"></path>
    </g>
</svg>