<svg xmlns="http://www.w3.org/2000/svg" width="512" height="512" viewBox="0 0 512 512">
  <path fill-rule="evenodd" d="M420.141846,167.180663 C390.71942,120.160589 338.399207,89.4668161 278.88958,89.4668161 C186.682898,89.4668161 112.129672,163.918681 112.129672,256 C112.129672,348.728798 186.682898,423.180663 278.88958,423.180663 C338.399207,423.180663 390.71942,391.839411 420.141846,345.466816 L496,392.48689 C450.220839,464.97173 369.791335,512 278.88958,512 C133.714325,512 16,400.977877 16,256 C16,111.022123 133.714325,0 278.88958,0 C369.791335,0 450.220839,47.6675524 496,119.51311 L420.141846,167.180663 Z M272,176 C316.183995,176 352,211.816005 352,256 C352,300.183995 316.183995,336 272,336 C227.816005,336 192,300.183995 192,256 C192,211.816005 227.816005,176 272,176 Z"/>
</svg>