<svg id="Layer_1" data-name="Layer 1" xmlns="http://www.w3.org/2000/svg" viewBox="0 0 176 246"><defs><style>.cls-1,.cls-4{fill:#ced8dd;}.cls-2{fill:#ecf0f2;}.cls-3{fill:none;stroke:#ced8dd;stroke-miterlimit:10;stroke-width:1.8px;}.cls-4{fill-rule:evenodd;}</style></defs><rect class="cls-1" width="176" height="246"/><path class="cls-2" d="M170.17,246c-.33-19.95-.71-39-.71-49.33a31.09,31.09,0,0,0-31-29.23H114.67v2.09a26.33,26.33,0,0,1-52.39,0v-2.09H37.63a31.08,31.08,0,0,0-31.09,31c0,14.49-.14,31.23-.28,47.54Z"/><path class="cls-2" d="M36,90a52.31,52.31,0,1,1,104.61,0v14.63a52.31,52.31,0,0,1-104.61,0Z"/><path class="cls-1" d="M88.25,157.86a53.27,53.27,0,0,1-53.2-53.2V90a53.2,53.2,0,1,1,106.4,0v14.63A53.26,53.26,0,0,1,88.25,157.86Zm0-119.24A51.47,51.47,0,0,0,36.84,90v14.63a51.42,51.42,0,0,0,102.83,0V90A51.47,51.47,0,0,0,88.25,38.62Z"/><path class="cls-2" d="M88.47,157a52.41,52.41,0,0,1-26.19-7v19.55a26.33,26.33,0,0,0,52.39,0V150A52.42,52.42,0,0,1,88.47,157Z"/><path class="cls-1" d="M88.47,194.07a27.12,27.12,0,0,1-27.08-24.45V148.43l1.34.77a51.71,51.71,0,0,0,51.51,0l1.34-.77v21.19A27.12,27.12,0,0,1,88.47,194.07Zm-25.3-24.59a25.44,25.44,0,0,0,50.61,0v-18a53.52,53.52,0,0,1-50.61,0Z"/><path class="cls-2" d="M40.8,84.07c2.82-26.23,20.48-46.35,47.45-46.35s44.07,20.12,46.9,46.35c-.08-.7,4.94-1.1,4.83-1.8a11.81,11.81,0,0,1,7.36,3.19,59.2,59.2,0,0,0-118.15-.34,11.82,11.82,0,0,1,7.33-2.87C36.42,83,40.88,83.36,40.8,84.07Z"/><path class="cls-1" d="M88.46,130.39h0a13.26,13.26,0,0,1-12.35-7.93l1.64-.71a11.49,11.49,0,0,0,10.72,6.85h0a11.52,11.52,0,0,0,10.75-6.85l1.64.72A13.31,13.31,0,0,1,88.46,130.39Z"/><circle class="cls-1" cx="65.59" cy="99.5" r="4.15"/><circle class="cls-1" cx="111.66" cy="99.5" r="4.15"/><path class="cls-2" d="M60.66,60.29h0a8.1,8.1,0,0,0,8.1,8.09h58.95c14.15,0,26.2-11,26.82-25.09,0-.43,0-.85,0-1.28,0,0-15.55,0-21.49,0A24.36,24.36,0,0,0,143.2,22.22H74.59A14.18,14.18,0,0,0,60.42,36.39h0V24.78A30.42,30.42,0,0,0,30.07,55.26a29.22,29.22,0,0,0,7.21,19.5l5.81-2.2A43.58,43.58,0,0,0,60.66,60.29Z"/><path class="cls-2" d="M140,82.27a52.21,52.21,0,0,1,.58,7.76v14.63c0,.38,0,.76,0,1.15a11.82,11.82,0,0,0,10.54-11.75h0A11.82,11.82,0,0,0,140,82.27Z"/><path class="cls-1" d="M139.62,106.81l0-1.47c0-.23,0-.45,0-.68V90a51.57,51.57,0,0,0-.57-7.63l-.16-1.09,1.1.07a12.71,12.71,0,0,1,.59,25.32ZM141,83.29a54.45,54.45,0,0,1,.42,6.74v14.73A10.92,10.92,0,0,0,141,83.29Z"/><path class="cls-2" d="M36,104.66V90a53.73,53.73,0,0,1,.57-7.77,11.81,11.81,0,0,0-11.43,11.8h0A11.82,11.82,0,0,0,36,105.83C36,105.44,36,105.05,36,104.66Z"/><path class="cls-1" d="M36.89,106.8l-1-.08a12.7,12.7,0,0,1,.59-25.36l1.08,0-.16,1.06A51.6,51.6,0,0,0,36.84,90v14.63c0,.23,0,.47,0,.71Zm-1.4-23.57a10.92,10.92,0,0,0-.44,21.58V90A53.54,53.54,0,0,1,35.49,83.23Z"/><path class="cls-1" d="M73.54,88.1H52.36a5.84,5.84,0,0,1,5.85-5.85H73.54a2.93,2.93,0,0,1,2.92,2.93h0A2.92,2.92,0,0,1,73.54,88.1Z"/><path class="cls-1" d="M124.15,88.1H103A2.93,2.93,0,0,1,100,85.18h0A2.93,2.93,0,0,1,103,82.25H118.3a5.85,5.85,0,0,1,5.85,5.85Z"/><path class="cls-1" d="M64.15,117A17.37,17.37,0,1,1,81.51,99.65,17.38,17.38,0,0,1,64.15,117Zm0-32.94A15.58,15.58,0,1,0,79.73,99.65,15.6,15.6,0,0,0,64.15,84.07Z"/><path class="cls-1" d="M112.36,117a17.37,17.37,0,1,1,17.36-17.36A17.38,17.38,0,0,1,112.36,117Zm0-32.94a15.58,15.58,0,1,0,15.57,15.58A15.6,15.6,0,0,0,112.36,84.07Z"/><rect class="cls-1" x="80.62" y="98.75" width="14.97" height="1.79"/><path class="cls-1" d="M89.8,119.23a7.27,7.27,0,1,1,0-14.54v1.79a5.48,5.48,0,1,0,0,11Z"/><path class="cls-1" d="M64.15,41.18H62.36v-4A10.68,10.68,0,0,1,73,26.48h54.62v1.79H73a8.9,8.9,0,0,0-8.58,6.57A10.68,10.68,0,0,1,73,30.52h46.89V32.3H73A8.89,8.89,0,0,0,64.15,41.18Z"/><rect class="cls-1" x="119.15" y="45.88" width="27.26" height="1.79"/><path class="cls-2" d="M154.2,56.46l-1.5-1a23.81,23.81,0,0,0,3.73-11.72V39.1h1.79v4.72A25.42,25.42,0,0,1,154.2,56.46Z"/><path class="cls-1" d="M140.86,97.56a.86.86,0,0,1-.22,0,.89.89,0,0,1-.67-.92,5.79,5.79,0,0,1,1.93-4.35,5.25,5.25,0,0,1,3.72-1.07.9.9,0,0,1-.24,1.78,3.38,3.38,0,0,0-2.36.68l-.26.24a4.43,4.43,0,0,1,.85-.15.89.89,0,1,1,.14,1.78A2.65,2.65,0,0,0,141.68,97,.91.91,0,0,1,140.86,97.56Z"/><path class="cls-1" d="M36,97.61a.89.89,0,0,1-.82-.55,2.67,2.67,0,0,0-2-1.54.89.89,0,1,1,.17-1.78,4.31,4.31,0,0,1,.84.17,2,2,0,0,0-.25-.25,3.49,3.49,0,0,0-2.35-.73.89.89,0,0,1-.2-1.77A5.21,5.21,0,0,1,35,92.29a5.87,5.87,0,0,1,1.85,4.39.89.89,0,0,1-.7.91Z"/><path class="cls-3" d="M60.66,60.29h0"/><path class="cls-3" d="M60.66,60.29A43.58,43.58,0,0,1,43.09,72.56l-5.81,2.2-.76,7.5"/><path class="cls-3" d="M140,82.27s-1.23-8.92-4.61-15a24.38,24.38,0,0,1-7.66,1.1H68.76a8.1,8.1,0,0,1-8.1-8.09"/><g id="CSC-min"><path class="cls-4" d="M79.07,212.9v7.95l-8,0,2.7-2.69a6.76,6.76,0,1,0-4.7,11.61,6.82,6.82,0,0,0,5.73-3.14l3.08,1.9a10.37,10.37,0,1,1-1.54-12.92Zm9.25,16.88a7.43,7.43,0,0,1-5.23-2l-2.12,3a11.39,11.39,0,0,0,7.35,2.56c4.11.08,7.61-2.74,7.53-6.18,0-3.22-2.46-5.17-5.52-5.94l-3.18-.81c-3.5-1-1.93-4.15,1.17-4.15a7.26,7.26,0,0,1,4.7,1.56l2.09-3a11.18,11.18,0,0,0-6.79-2.21c-3.75-.08-7.09,2.56-7,5.73,0,2.76,2,4.72,4.88,5.48l3.4.88C93.68,225.85,92,229.78,88.32,229.78Zm26.17-10.38a6.75,6.75,0,1,0,0,7.21l3.08,1.9a10.35,10.35,0,1,1,0-11ZM105.6,223a3.17,3.17,0,1,1,3.17,3.15A3.16,3.16,0,0,1,105.6,223Z"/></g></svg>