<svg id="Layer_1" data-name="Layer 1" xmlns="http://www.w3.org/2000/svg" viewBox="0 0 176 246"><defs><style>.cls-1,.cls-3{fill:#ced8dd;}.cls-2{fill:#ecf0f2;}.cls-3{fill-rule:evenodd;}</style></defs><rect class="cls-1" width="176" height="246"/><path class="cls-2" d="M159,108.73a125.64,125.64,0,0,1-10.13-23.91c-5.62-19.28-20.52-33.06-38-33.06a32.9,32.9,0,0,0-7.89,1A61.51,61.51,0,0,0,20,95a108.27,108.27,0,0,1-5.71,17.22,47,47,0,0,0,50,65.12C70.5,176,74.54,174.6,76.88,173c-26.31-3.71-46.58-19.82-49.19-46.19a78.38,78.38,0,0,0,12.43,1,79.8,79.8,0,0,0,65.75-34.58,79.14,79.14,0,0,0,44.34,32.24c-2,27-22.3,43.56-48.81,47.47,4.49,3.94,13.31,4.88,16.07,4.88A47,47,0,0,0,159,108.73Z"/><path class="cls-2" d="M148.2,246V212h-.11a25.78,25.78,0,0,0-25.67-23.46H100.1a11.21,11.21,0,0,1-11.21,11.18h0a11.21,11.21,0,0,1-11.21-11.18H55.36A25.79,25.79,0,0,0,29.69,212h-.11v34Z"/><path class="cls-2" d="M150.39,120.93c0,34-27.53,52.9-61.5,52.9s-61.5-18.94-61.5-52.9a61.5,61.5,0,1,1,123,0Z"/><path class="cls-1" d="M149.48,122.61c-.42,15.11-6.49,27.83-17.65,36.83C121,168.16,105.78,173,88.89,173S56.76,168.16,46,159.44a46.66,46.66,0,0,1-17.23-31.31l-1.72.22a48.39,48.39,0,0,0,17.86,32.44c11.12,9,26.75,13.9,44,13.9s32.92-4.94,44-13.9c11.45-9.24,17.73-22.23,18.28-37.65A4.82,4.82,0,0,1,149.48,122.61Z"/><path class="cls-2" d="M88.89,173.83a85.57,85.57,0,0,1-11.21-.74v15.42a11.21,11.21,0,0,0,11.21,11.22h0a11.22,11.22,0,0,0,11.22-11.22V173.09A85.84,85.84,0,0,1,88.89,173.83Z"/><path class="cls-1" d="M88.89,200.59a12.09,12.09,0,0,1-12.08-12.08v-16.4l1,.13a85.92,85.92,0,0,0,22.2,0l1-.13v16.4A12.09,12.09,0,0,1,88.89,200.59ZM78.54,174.07v14.44a10.35,10.35,0,1,0,20.7,0V174.07A87.4,87.4,0,0,1,78.54,174.07Z"/><ellipse class="cls-1" cx="113.29" cy="134.43" rx="3.65" ry="4.07"/><ellipse class="cls-1" cx="64.49" cy="134.43" rx="3.65" ry="4.07"/><path class="cls-1" d="M54.5,120.23h19a0,0,0,0,1,0,0v0a2.63,2.63,0,0,1-2.63,2.63H54.5a1.32,1.32,0,0,1-1.32-1.32v0A1.32,1.32,0,0,1,54.5,120.23Z" transform="translate(140.33 234.95) rotate(173.36)"/><path class="cls-1" d="M105.42,120.23h16.4a2.63,2.63,0,0,1,2.63,2.63v0a0,0,0,0,1,0,0h-19a1.32,1.32,0,0,1-1.32-1.32v0a1.32,1.32,0,0,1,1.32-1.32Z" transform="translate(14.81 -12.39) rotate(6.64)"/><path class="cls-1" d="M60.75,153.77a20.1,20.1,0,1,1,20.09-20.09A20.12,20.12,0,0,1,60.75,153.77Zm0-38.46a18.37,18.37,0,1,0,18.36,18.37A18.39,18.39,0,0,0,60.75,115.31Z"/><path class="cls-1" d="M117,153.77a20.1,20.1,0,1,1,20.09-20.09A20.11,20.11,0,0,1,117,153.77Zm0-38.46a18.37,18.37,0,1,0,18.36,18.37A18.39,18.39,0,0,0,117,115.31Z"/><rect class="cls-1" x="79.98" y="132.81" width="17.48" height="1.73"/><path class="cls-1" d="M87.46,145.21v-1.73a3,3,0,1,0,0-6.07v-1.73a4.77,4.77,0,1,1,0,9.53Z"/><path class="cls-1" d="M88.73,155.79h0a9.33,9.33,0,0,1-7.68-4l1.42-1a7.61,7.61,0,0,0,6.26,3.22h0A7.62,7.62,0,0,0,95,150.84l1.42,1A9.35,9.35,0,0,1,88.73,155.79Z"/><path class="cls-1" d="M40.66,120.93V119.2a70.61,70.61,0,0,0,45.07-16.3,69.44,69.44,0,0,0,24-40.61l1.7.32a71.21,71.21,0,0,1-24.54,41.62A72.36,72.36,0,0,1,40.66,120.93Z"/><path class="cls-1" d="M40.66,115.42v-1.73A63.74,63.74,0,0,0,81.37,99,62.72,62.72,0,0,0,103,62.29l1.7.32A64.44,64.44,0,0,1,82.48,100.3,65.55,65.55,0,0,1,40.66,115.42Z"/><path class="cls-1" d="M153.65,123.69a75.85,75.85,0,0,1-50.58-40.3l1.55-.76A74.13,74.13,0,0,0,154.05,122Z"/><path class="cls-2" d="M58,182.23A51.51,51.51,0,0,1,6.54,130.78H8.27A49.77,49.77,0,0,0,58,180.5Z"/><path class="cls-2" d="M153.6,167.94l-1.2-1.25a49.28,49.28,0,0,0,15.33-35.91h1.73A51,51,0,0,1,153.6,167.94Z"/><path class="cls-2" d="M118,182.23V180.5A49.45,49.45,0,0,0,136.43,177l.64,1.61A51.15,51.15,0,0,1,118,182.23Z"/><g id="CSC-min"><path class="cls-3" d="M81.07,217.47v6.18l-6.19,0,2.1-2.09a5.23,5.23,0,1,0,.8,6.58l2.39,1.47a8,8,0,1,1-1.2-10Zm7.18,13.11A5.77,5.77,0,0,1,84.19,229l-1.65,2.31a8.84,8.84,0,0,0,5.71,2c3.19.06,5.91-2.13,5.85-4.79,0-2.5-1.92-4-4.29-4.61l-2.47-.64c-2.72-.78-1.5-3.22.91-3.22a5.59,5.59,0,0,1,3.64,1.21L93.52,219a8.62,8.62,0,0,0-5.27-1.72c-2.91-.06-5.51,2-5.44,4.44,0,2.15,1.54,3.67,3.79,4.27l2.63.67C92.41,227.52,91.11,230.58,88.25,230.58Zm20.31-8.06a5.24,5.24,0,1,0,0,5.6l2.39,1.47a8,8,0,1,1,0-8.56Zm-6.9,2.8a2.47,2.47,0,1,1,2.47,2.45A2.46,2.46,0,0,1,101.66,225.32Z"/></g></svg>