<?xml version="1.0" encoding="UTF-8"?>
<svg width="30px" height="30px" viewBox="0 0 30 30" version="1.1" xmlns="http://www.w3.org/2000/svg" xmlns:xlink="http://www.w3.org/1999/xlink">
    <!-- Generator: Sketch 50.2 (55047) - http://www.bohemiancoding.com/sketch -->
    <title>icons/eye-close</title>
    <desc>Created with Sketch.</desc>
    <defs></defs>
    <g id="icons/eye-close" stroke="none" stroke-width="1" fill="none" fill-rule="evenodd">
        <path d="M18.1547694,15.5456077 C17.4597653,15.7614471 16.7412064,15.9005562 16,15.9622682 L16,18.0000009 C16,18.5522857 15.5522847,19.0000009 15,19.0000009 C14.4477153,19.0000009 14,18.5522857 14,18.0000009 L14,15.9431753 C13.2722814,15.8686087 12.5619172,15.719621 11.8696131,15.4968427 L10.8944272,17.4472145 C10.6474379,17.941193 10.0467649,18.1414173 9.5527864,17.8944281 C9.05880791,17.6474388 8.85858356,17.0467658 9.10557281,16.5527873 L10.0281992,14.7075346 C9.34710125,14.3392169 8.68598531,13.8926677 8.0456309,13.3685836 L6.70710678,14.7071077 C6.31658249,15.097632 5.68341751,15.097632 5.29289322,14.7071077 C4.90236893,14.3165834 4.90236893,13.6834184 5.29289322,13.2928941 L7.28997967,11.2958077 C7.29094674,11.2948315 7.29191537,11.2938578 7.29288554,11.2928865 C7.67638317,10.9094042 8.29385138,10.9024965 8.68577043,11.2721712 C10.6446052,13.1020208 12.7708309,13.9991303 15.1043202,13.9991303 C17.4296736,13.9991303 19.4762407,13.1090194 21.2929958,11.2927915 C21.4882692,11.0975748 21.744178,10.9999809 22.0000779,11.0000009 C22.2559672,11.000018 22.5118617,11.0976491 22.7071068,11.2928941 L24.7071068,13.2928941 C25.0976311,13.6834184 25.0976311,14.3165834 24.7071068,14.7071077 C24.3165825,15.097632 23.6834175,15.097632 23.2928932,14.7071077 L21.9737941,13.3880085 C21.3433845,13.9300743 20.6848987,14.3885716 19.9993948,14.7627226 L20.8944272,16.5527873 C21.1414164,17.0467658 20.9411921,17.6474388 20.4472136,17.8944281 C19.9532351,18.1414173 19.3525621,17.941193 19.1055728,17.4472145 L18.1547694,15.5456077 Z" id="password-hidden" fill="#8B9CA7" fill-rule="nonzero"></path>
    </g>
</svg>