<svg xmlns="http://www.w3.org/2000/svg" width="164" height="88" viewBox="0 0 164 88">
  <g fill="#07C39F" transform="translate(0 -1)">
    <path d="M3.66 50.47C5.32781409 52.0274612 7.53861851 52.8708687 9.82 52.82 14.16 52.82 16.13 48.16 11.32 46.82L7.32 45.82C3.91 44.92 1.56 42.6 1.56 39.32 1.47 35.57 5.41 32.44 9.82 32.54 12.7020587 32.5109047 15.5135037 33.4316529 17.82 35.16L15.35 38.67C13.7828945 37.4197855 11.8239383 36.7644385 9.82 36.82 6.16 36.82 4.31 40.54 8.44 41.73L12.19 42.73C15.79 43.63 18.7 45.95 18.7 49.73 18.79 53.8 14.7 57.14 9.82 57.05 6.6642348 57.0848531 3.59743156 56.0047434 1.16 54L3.66 50.47zM34.39 43.69C33.4025015 42.6841206 32.0495641 42.1212986 30.64 42.13 27.6963223 42.13 25.31 44.5163223 25.31 47.46 25.31 50.4036777 27.6963223 52.79 30.64 52.79 32.0508016 52.7949261 33.4035225 52.228587 34.39 51.22L37.45 54.22C34.6555474 56.9682331 30.4955477 57.793805 26.8634021 56.3209613 23.2312564 54.8481175 20.8211384 51.3583472 20.73 47.44 20.7395346 44.845376 21.7978328 42.364859 23.6642594 40.5624672 25.5306861 38.7600754 28.0466236 37.7889843 30.64 37.87 33.1967904 37.8563229 35.6513854 38.8727631 37.45 40.69L34.39 43.69zM66.46 49.41L52.05 49.41C52.7423602 51.5567835 54.744348 53.0087302 57 53 58.9823032 53.0345472 60.8536949 52.087623 62 50.47L65.37 52.66C63.4619339 55.3933223 60.3333956 57.0155273 57 57.0001105 51.7306277 56.9229736 47.5129151 52.6044015 47.5604122 47.3346803 47.6079093 42.0649591 51.9027788 37.8231126 57.1726834 37.8410222 62.442588 37.8590454 66.7084351 42.1300775 66.72 47.4 66.7066574 48.0774593 66.6194754 48.7514434 66.46 49.41zM62 45.73C61.3025107 43.5833689 59.3021035 42.1299922 57.045 42.1299922 54.7878965 42.1299922 52.7874893 43.5833689 52.09 45.73L62 45.73zM101.9 43.69C100.913817 42.6821764 99.5600158 42.1189951 98.15 42.13 95.2063223 42.13 92.82 44.5163223 92.82 47.46 92.82 50.4036777 95.2063223 52.79 98.15 52.79 99.561258 52.7972233 100.914839 52.2305241 101.9 51.22L104.97 54.22C101.913551 57.4479355 97.0527477 58.1821497 93.1792629 56.0009662 89.3057781 53.8197826 87.4132581 49.2827295 88.5886216 44.9955432 89.7639852 40.7083568 93.705722 37.770808 98.15 37.87 100.720191 37.8477995 103.190377 38.8647227 105 40.69L101.9 43.69zM125.46 49.41L111.05 49.41C111.745063 51.554821 113.745374 53.0055515 116 53 117.982303 53.0345472 119.853695 52.087623 121 50.47L124.38 52.66C122.467584 55.3935727 119.336093 57.0153711 116 57.0001083 110.730628 56.9229736 106.512915 52.6044015 106.560412 47.3346803 106.607909 42.0649591 110.902779 37.8231126 116.172683 37.8410222 121.442588 37.8590454 125.708435 42.1300775 125.72 47.4 125.711574 48.0778156 125.62432 48.7523498 125.46 49.41L125.46 49.41zM121 45.73C120.302511 43.5833689 118.302104 42.1299922 116.045 42.1299922 113.787896 42.1299922 111.787489 43.5833689 111.09 45.73L121 45.73z"/>
    <rect width="4.3" height="18.12" x="39.77" y="38.36"/>
    <path d="M44.6400193 33.75C44.6455123 35.2024935 43.472506 36.3844426 42.0200125 36.3899813 40.5675191 36.3954812 39.3855643 35.2224806 39.3800185 33.7699872 39.3745117 32.3174938 40.5475066 31.1355333 42 31.13 42.698326 31.1246691 43.3698828 31.3983489 43.8655622 31.8902732 44.3612417 32.3821975 44.6400193 33.0516537 44.6400193 33.75zM77.44 37.85C72.44 37.85 69.25 41.5 69.25 46.19L69.25 56.48 73.55 56.48 73.55 46.16C73.4599072 45.0862792 73.836027 44.0256848 74.5824649 43.2486239 75.3289027 42.471563 76.3735261 42.0531272 77.45 42.1 78.5547112 42.0742408 79.6208647 42.5066231 80.3955682 43.2945856 81.1702717 44.0825481 81.5845007 45.1558849 81.54 46.26L81.54 56.48 85.84 56.48 85.84 46.19C85.9386992 43.9387197 85.0833454 41.7502157 83.4842198 40.1625125 81.8850942 38.5748092 79.6905149 37.7351653 77.44 37.85L77.44 37.85zM25.33 10.72L25.33 1.3 22.13 4.5C19.8435501 2.25974202 16.7710306 1.00345486 13.57 1 9.10823829.872534103 4.92975141 3.18004493 2.66126082 7.02419836.392770226 10.8683518.392770226 15.6416482 2.66126082 19.4858016 4.92975141 23.3299551 9.10823829 25.6374659 13.57 25.51 17.8012182 25.5326073 21.7445299 23.3700241 24 19.79L20.37 17.54C18.5658966 20.4082765 15.1504627 21.8288467 11.844406 21.0860223 8.5383493 20.3431978 6.05887677 17.598125 5.65515553 14.2337813 5.25143429 10.8694377 7.01104653 7.61567471 10.0474933 6.11174983 13.0839401 4.60782496 16.7385029 5.17999554 19.17 7.54L15.97 10.74 25.33 10.72zM36.17 25.43C30.8791121 25.43 26.59 21.1408879 26.59 15.85 26.59 10.5591121 30.8791121 6.27 36.17 6.27 39.6970292 6.10880387 43.0273631 7.89866765 44.8390617 10.9291243 46.6507602 13.959581 46.6507602 17.740419 44.8390617 20.7708757 43.0273631 23.8013323 39.6970292 25.5911961 36.17 25.43zM36.17 10.5199623C33.2263529 10.5310663 30.8490225 12.9263275 30.8600366 15.8699747 30.8711274 18.8136219 33.2663775 21.1909635 36.2100247 21.1799631 39.153672 21.1688862 41.5310249 18.7736473 41.5200382 15.83 41.5147056 14.416393 40.9480697 13.062788 39.944748 12.0669677 38.9414262 11.0711474 37.5836069 10.5146857 36.17 10.5199623L36.17 10.5199623zM151.26 17.78L136.85 17.78C137.540417 19.9252628 139.536374 21.3798066 141.79 21.38 143.776599 21.4229341 145.653088 20.4696777 146.79 18.84L150.2 21C148.279444 23.7374398 145.133801 25.3532754 141.79 25.32 136.512405 25.2484481 132.28466 20.9257176 132.330366 15.6478359 132.376072 10.3699543 136.678046 6.12109031 141.956089 6.1408798 147.234131 6.16080795 151.504011 10.4419239 151.51 15.72 151.508109 16.4141175 151.424194 17.1055795 151.26 17.78zM146.76 14.09C146.062511 11.9433689 144.062104 10.4899922 141.805 10.4899922 139.547896 10.4899922 137.547489 11.9433689 136.85 14.09L146.76 14.09zM154 24.84L154 14.6C154 10.09 156.56 6.66 162.09 6.66 162.54 6.66 163.02 6.66 163.52 6.74L163.52 11C163.188715 10.9532996 162.854561 10.9299088 162.52 10.93 159.72 10.93 158.31 12.46 158.31 15.53L158.31 24.86 154 24.84zM77.8499628 16.41L77.8499628 30.41 82.15 30.41 82.15 23.22C83.5306389 24.7448808 85.5033105 25.5981251 87.56 25.56 90.1103012 25.6094278 92.5707489 24.6180967 94.3744228 22.8144228 96.1780967 21.0107489 97.1694278 18.5503012 97.12 16 97.2252586 11.3464208 93.8844122 7.32716496 89.29 6.58 86.423118 6.13545921 83.5053116 6.96819333 81.3049096 8.85892333 79.1045077 10.7496533 77.8420602 13.5088682 77.8499628 16.41L77.8499628 16.41zM87.4 21.1800377C84.4615585 21.1689531 82.0863595 18.7818184 82.0900376 15.8433584 82.0937242 12.9048985 84.4748985 10.5237242 87.4133584 10.5200376 90.3518184 10.5163595 92.7389531 12.8915585 92.7500377 15.83 92.7553404 17.2505387 92.1933964 18.6144372 91.1889168 19.6189168 90.1844372 20.6233964 88.8205387 21.1853404 87.4 21.1800377L87.4 21.1800377zM112.25 6.72L112.25 17C112.349966 18.074343 111.978543 19.13916 111.232072 19.9182535 110.4856 20.697347 109.437634 21.1139493 108.36 21.06 107.255289 21.0857592 106.189135 20.6533769 105.414432 19.8654144 104.639728 19.0774519 104.225499 18.0041151 104.27 16.9L104.27 6.72 100 6.72 100 17C99.9139388 19.2486238 100.772994 21.4306222 102.368918 23.0170466 103.964842 24.603471 106.15193 25.4494841 108.4 25.35 113.4 25.35 116.58 21.67 116.58 17L116.58 6.72 112.25 6.72zM53 24.84L53 13.77C52.9081174 12.8971991 53.2030301 12.0279323 53.8070379 11.3912233 54.4110458 10.7545144 55.2635708 10.4142212 56.14 10.46 57.0397555 10.4275923 57.9115365 10.7757212 58.5414765 11.4189831 59.1714164 12.062245 59.5012275 12.9411196 59.45 13.84L59.45 24.84 63.74 24.84 63.74 13.77C63.6679769 12.8983769 63.9723592 12.0375921 64.5762904 11.4049932 65.1802216 10.7723944 66.0259756 10.4284479 66.9 10.46 67.7956491 10.4297273 68.6622648 10.7799667 69.2853789 11.4240418 69.9084929 12.0681168 70.2298786 12.9458421 70.17 13.84L70.17 24.84 74.47 24.84 74.47 13.58C74.5588499 11.6012093 73.8123429 9.67611041 72.412668 8.27453376 71.012993 6.87295711 69.0889095 6.12383697 67.11 6.21 64.9319541 6.11459973 62.8499667 7.11245313 61.56 8.87 60.213044 7.1109788 58.093608 6.118426 55.88 6.21 51.41 6.21 48.68 9.49 48.68 13.58L48.68 24.84 53 24.84zM130.37 10.72L130.37 6.72 125.77 6.72 125.77 1.5 121.47 1.5 121.47 6.72 118.39 6.72 118.39 10.72 121.47 10.72 121.47 18.65C121.47 22.79 123.94 24.86 128.88 24.86 129.36 24.86 129.88 24.86 130.37 24.86L130.37 20.57C130.1 20.57 129.85 20.57 129.6 20.57 127.05 20.57 125.77 19.94 125.77 17.57L125.77 10.72 130.37 10.72zM44.61 81.05L30.2 81.05C30.8912384 83.1932617 32.8880315 84.6443725 35.14 84.64 37.1247311 84.6851958 39.0008365 83.7358864 40.14 82.11L43.52 84.3C41.5948878 87.0309632 38.4511356 88.6420895 35.11 88.61 31.6873956 88.6100001 28.5247786 86.7840624 26.8134764 83.8200001 25.1021742 80.8559377 25.1021742 77.2040623 26.8134764 74.2399999 28.5247786 71.2759376 31.6873956 69.4499999 35.11 69.45 37.6717415 69.4153126 40.1414977 70.4039075 41.9717633 72.1966291 43.8020288 73.9893508 44.8415926 76.4380898 44.86 79 44.8566808 79.6907309 44.7727803 80.3787156 44.61 81.05zM40.11 77.36C39.4125107 75.2133689 37.4121035 73.7599922 35.155 73.7599922 32.8978965 73.7599922 30.8974893 75.2133689 30.2 77.36L40.11 77.36zM98.74 81.05L84.33 81.05C85.0212384 83.1932617 87.0180315 84.6443725 89.27 84.64 91.2523032 84.6745472 93.1236949 83.727623 94.27 82.11L97.65 84.3C95.7237252 87.0296244 92.5807277 88.6403639 89.24 88.61 83.977586 88.5110775 79.780531 84.1852166 79.840678 78.9222166 79.9008249 73.6592166 84.1956449 69.4304031 89.4589452 69.4516905 94.7222455 69.4731392 98.982588 73.7366851 99 79 98.9934072 79.6911231 98.9061499 80.3791134 98.74 81.05L98.74 81.05zM94.24 77.36C93.5425107 75.2133689 91.5421035 73.7599922 89.285 73.7599922 87.0278965 73.7599922 85.0274893 75.2133689 84.33 77.36L94.24 77.36zM101.5 88.11L101.5 77.87C101.5 73.36 104.06 69.93 109.59 69.93 110.04 69.93 110.52 69.93 111.02 70.01L111.02 74.25C110.688725 74.203201 110.354564 74.1798097 110.02 74.18 107.206667 74.18 105.8 75.7133333 105.8 78.78L105.8 88.11 101.5 88.11zM20.32 72.14C18.4202589 69.1252281 14.7555626 67.7304049 11.3320612 68.7190929 7.90855976 69.707781 5.55170812 72.8415935 5.55170812 76.405 5.55170812 79.9684065 7.90855976 83.102219 11.3320612 84.0909071 14.7555626 85.0795951 18.4202589 83.6847719 20.32 80.67L24 82.92C21.7539683 86.4849171 17.8334622 88.6453501 13.62 88.64 9.15823829 88.7674659 4.97975141 86.4599551 2.71126082 82.6158016.442770226 78.7716482.442770226 73.9983518 2.71126082 70.1541984 4.97975141 66.3100449 9.15823829 64.0025341 13.62 64.13 17.8315272 64.1419111 21.7456624 66.3026042 24 69.86L20.32 72.14z"/>
    <circle cx="13.57" cy="76.39" r="3.74"/>
    <path d="M55.63 69.48C50.63 69.48 47.45 73.14 47.45 77.83L47.45 88.11 51.75 88.11 51.75 77.8C51.6571386 76.7264351 52.0305912 75.6648032 52.7751303 74.8858125 53.5196693 74.1068218 54.5633348 73.6857619 55.64 73.73 56.7465219 73.7040834 57.8143208 74.1378148 58.5893481 74.9280015 59.3643754 75.7181883 59.7773435 76.7941876 59.73 77.9L59.73 88.11 64 88.11 64 77.83C64.0854974 75.5868128 63.2304596 73.4098131 61.6412374 71.8243884 60.0520152 70.2389636 57.8729763 69.3891363 55.63 69.48zM77.85 74L77.85 70 73.25 70 73.25 64.77 69 64.77 69 70 65.87 70 65.87 74 69 74 69 81.94C69 86.08 71.47 88.15 76.41 88.15 76.89 88.15 77.41 88.15 77.9 88.15L77.9 83.84 77.13 83.84C74.58 83.84 73.3 83.21 73.3 80.84L73.3 74 77.85 74z"/>
  </g>
</svg>
