<svg xmlns="http://www.w3.org/2000/svg" width="24" height="24" viewBox="0 0 24 24">
  <path d="M12.5,13 C15.5375661,13 18,10.5375661 18,7.5 C18,4.46243388 15.5375661,2 12.5,2 C9.46243388,2 7,4.46243388 7,7.5 C7,10.5375661 9.46243388,13 12.5,13 Z M12.5,15 C8.35786438,15 5,11.6421356 5,7.5 C5,3.35786438 8.35786438,0 12.5,0 C16.6421356,0 20,3.35786438 20,7.5 C20,11.6421356 16.6421356,15 12.5,15 Z M2.55255734,21.8471913 C2.09224187,22.1523603 1.47169411,22.0265892 1.16652511,21.5662738 C0.861356121,21.1059583 0.987127191,20.4854105 1.44744266,20.1802416 C7.84352447,15.9399195 16.1564755,15.9399195 22.5525573,20.1802416 C23.0128728,20.4854105 23.1386439,21.1059583 22.8334749,21.5662738 C22.5283059,22.0265892 21.9077581,22.1523603 21.4474427,21.8471913 C15.7211894,18.0509362 8.27881063,18.0509362 2.55255734,21.8471913 Z"/>
</svg>
