<svg xmlns="http://www.w3.org/2000/svg" width="16" height="16" viewBox="0 0 16 16">
  <path fill="#000000" d="M7,10 C4.23857625,10 2,7.76142375 2,5 C2,2.23857625 4.23857625,0 7,0 C9.76142375,0 12,2.23857625 12,5 C12,7.76142375 9.76142375,10 7,10 Z M7,8 C8.65685425,8 10,6.65685425 10,5 C10,3.34314575 8.65685425,2 7,2 C5.34314575,2 4,3.34314575 4,5 C4,6.65685425 5.34314575,8 7,8 Z M1.6401844,14.7682213 C1.2159075,15.1217854 0.585342801,15.0644613 0.23177872,14.6401844 C-0.121785361,14.2159075 -0.0644612969,13.5853428 0.3598156,13.2317787 C2.14695822,11.7424932 4.37443783,11 7,11 C9.62556217,11 11.8530418,11.7424932 13.6401844,13.2317787 C14.0644613,13.5853428 14.1217854,14.2159075 13.7682213,14.6401844 C13.4146572,15.0644613 12.7840925,15.1217854 12.3598156,14.7682213 C10.9469582,13.5908401 9.17443783,13 7,13 C4.82556217,13 3.05304178,13.5908401 1.6401844,14.7682213 Z" transform="translate(1)"/>
</svg>
