<svg xmlns="http://www.w3.org/2000/svg" viewBox="0 0 664 558">
  <defs/>
  <defs>
    <style>
      .cls-2{fill:#384349}.cls-3{fill:#fff}.cls-4{fill:#07c39f}
    </style>
  </defs>
  <g id="Layer_1" data-name="Layer 1">
    <path fill="#ecf0f3" d="M5.71 223.34c0 87.8 91 214.29 197.69 283.27 54.13 35 109.43 48.3 164.4 48.3 46.28 0 130.46-14.5 177.14-61.54 44.12-44.45 116.56-112.64 109-253.06C646.82 108.18 519.38.93 340 7.67 207.76 12.64 5.71 91 5.71 223.34z"/>
    <path d="M445.08 405.6h-48.31a29.56 29.56 0 01-29.55 29.46 29.56 29.56 0 01-29.55-29.46h-48.3a67.93 67.93 0 00-67.65 61.81l-6.66 46.95a303.94 303.94 0 00304.32 0l-6.65-46.95a67.94 67.94 0 00-67.65-61.81z" class="cls-2"/>
    <path d="M407 183a187.24 187.24 0 01-80.83 66.92 3 3 0 01-1.82.77 183.32 183.32 0 01-70.71 14.15 181.63 181.63 0 01-27-2c3.19 31.29 17 57.68 40.54 76.93 25.21 20.65 60.78 32 100.17 32s74.95-11.37 100.16-32c24.52-20.08 38.54-47.95 40.9-81A185 185 0 01407 183z" class="cls-3"/>
    <path d="M509.85 261.09c-1.31-.35-2.61-.72-3.9-1.1-2.32 32.07-16.12 59.09-40.25 78.56-24.81 20-59.82 31-98.59 31s-73.77-11-98.58-31c-23.13-18.66-36.76-44.25-39.9-74.58-1.36-.2-2.71-.41-4-.64 3 31.86 17.21 58.74 41.46 78.31 18.85 15.2 43.36 25.35 70.87 29.62l2.39.36v-3.71l2.26.29a193.87 193.87 0 0050.48 0l2.26-.29v3.79c1.22-.16 2.43-.34 3.64-.54 27.26-4.32 51.54-14.44 70.25-29.52 24.76-20.03 39.03-47.72 41.61-80.55z" class="cls-2"/>
    <path d="M343.3 372.4v32.26c0 12.57 10.26 23.66 22.82 24a23.52 23.52 0 0024.18-23.49V372.4a199.7 199.7 0 01-47 0z" class="cls-3"/>
    <path d="M394.3 367.85l-2.26.3a194.75 194.75 0 01-50.48 0l-2.26-.3v36.83c0 14 10.22 26.13 24.09 27.81a27.53 27.53 0 0030.91-27.3v-37.34zm-4 37.34a23.52 23.52 0 01-24.18 23.49c-12.56-.36-22.82-11.45-22.82-24V372.4a199.7 199.7 0 0047 0z" class="cls-2"/>
    <path d="M509.59 261.12c-2.58 32.82-16.83 60.49-41.64 80.5-18.69 15.08-43 25.19-70.2 29.51 10.74 7.67 28.83 9.54 34.76 9.54a107.82 107.82 0 0095.19-158.48c-9.37-17.56-17.68-35.72-23.25-54.84-12.89-44.23-47.07-75.85-87.24-75.85a76.06 76.06 0 00-18.09 2.2 141.09 141.09 0 00-191.19 101.18 167.1 167.1 0 01-11.46 33.71 107.86 107.86 0 0098.35 152.08 109.15 109.15 0 0015.75-1.15c12.1-2.47 20.62-5.24 26.19-8.29-27.49-4.27-52-14.41-70.82-29.61-24.24-19.55-38.41-46.42-41.44-78.25 1.34.23 2.69.44 4.05.64a183 183 0 0096.07-11.77c-.33 0 .91-.3 1.79-.74a183.61 183.61 0 0079.5-64.83m.27 0A181.64 181.64 0 00506 260c1.29.38 2.59.74 3.89 1.09" class="cls-4"/>
    <path d="M375.23 295a10.94 10.94 0 00-10.93-11v4a7 7 0 110 13.93v4A10.94 10.94 0 00375.23 295zm-7.45 30.61c-5.26.15-12.35-2-15.09-8.43l-3.69 1.54c2.81 6.65 9.88 10.86 18.12 10.86h.74c8.08-.24 14.53-4.44 16.83-11l-3.69-1.29c-2.09 5.9-8.2 8.17-13.22 8.32zm-54.14-56.01h-1.29a22.54 22.54 0 00-17.44 8.06l1.56.9-1.91 3.29-2.15-1.25h-8.11v4h10.82l.53-1a18.59 18.59 0 0116.7-10h1.28a19.23 19.23 0 0117.49 10.49l3.56-1.82a23.46 23.46 0 00-21.04-12.67z" class="cls-2"/>
    <path d="M297.11 278.49l-1.62-.94-6.31-3.67-1.99 3.43 5.68 3.3 2.25 1.31 1.99-3.43zm142.53 3.36l-1.91-3.29 1.56-.9a22.54 22.54 0 00-17.44-8.06h-1.05a23.48 23.48 0 00-21 12.67l3.56 1.82a19.25 19.25 0 0117.49-10.49h1a18.6 18.6 0 0116.7 10l.53 1h10.22v-4h-7.51z" class="cls-2"/>
    <path d="M439.32 281.92l2.25-1.31 5.69-3.3-2-3.43-6.3 3.67-1.63.94 1.99 3.43zm-29.38-35.28a3 3 0 001.75 5.66c19.76-6.29 37.57 6.8 37.76 6.94a5.42 5.42 0 00-1.69-8c-7.42-4.04-21.76-9.72-37.82-4.6zm-83.25 4.85a2.85 2.85 0 00.79-1.13 3 3 0 00-1.93-3.92c-16.08-4.87-30.39 1-37.74 5.17a5.42 5.42 0 00-1.57 8c.19-.15 17.79-13.5 37.65-7.52a2.88 2.88 0 001 .11 3 3 0 001.8-.71zm76.52-135.1l-3.89-.73a144 144 0 01-49.62 84.15 146.34 146.34 0 01-93.4 33.77v4a150.3 150.3 0 0095.93-34.69 147.87 147.87 0 0050.98-86.5z" class="cls-2"/>
    <path d="M403 161.18a160.68 160.68 0 0015.48-44.84l-3.9-.73a159.43 159.43 0 01-54.94 93.17 162 162 0 01-103.4 37.39v4a166 166 0 00105.94-38.31 164.94 164.94 0 0038.54-46.4c-.43-.85-.88-1.69-1.3-2.54z" class="cls-2"/>
    <path d="M515.54 252.35c-42-10.3-79.5-37.83-103.23-75.21a170.93 170.93 0 01-9-15.91l-3.55 1.76c.42.85.86 1.69 1.3 2.54a176.66 176.66 0 008.94 15.34c24.48 37.66 62.66 65.3 105.42 75.54l.38.1.92-3.86c-.4-.09-.79-.2-1.18-.3z" class="cls-2"/>
  </g>
  <path id="glasses" fill="#f69c1c" d="M441.74 233.85a46.57 46.57 0 00-55.85 43.75h-37.34a46.57 46.57 0 00-55.85-43.75 46 46 0 00-35.92 34.92 46.52 46.52 0 1091.76 12.83h37.36a46.52 46.52 0 1091.76-12.83 46 46 0 00-35.92-34.92zm-139.09 87.71a42.14 42.14 0 1142.14-42.13 42.19 42.19 0 01-42.14 42.13zm129.14 0a42.14 42.14 0 1142.14-42.13 42.18 42.18 0 01-42.14 42.13z"/>
  <g id="hands">
    <path d="M500.46 523.74l.03-.02-.03.02zm-267.11-.2l.3-.67-.35.63zm129.34-80.49a19.39 19.39 0 01-7.93-4 73.49 73.49 0 01-9.22-11.11 7.71 7.71 0 00-8.24-3 81.13 81.13 0 01-16.3 2.49 7.62 7.62 0 00-5.08 2.34 71.14 71.14 0 01-5.62 5l-2.42 2c-.45.4-.91.8-1.39 1.2l-.41.35a57.25 57.25 0 01-5.19 3.85l-.07.21c-.09.4-.1 2.25-.11 3.89 0 12-.17 43.95-26.61 56.55l-.86-1.79-.85-1.79c24.2-11.53 24.31-41.65 24.36-53 0-3 0-4.3.31-5.15 3.21-9.46 6.69-19.57 8.22-22.77 1.08-2.26 5.73-7 12.7-14 4.12-4.12 8.39-8.39 9.35-9.87 2.95-4.57 2.78-7.93 2.4-10.07a2.76 2.76 0 00-1.57-2.05 1.25 1.25 0 00-1.15 0l-30.57 26.85a9.78 9.78 0 00-2.3 2.33c-3 4.31-6.33 10.22-9.23 15.43l-2.17 4.06c-2.4 4.24-4.27 8.21-6.25 12.42a178.63 178.63 0 01-8.77 16.94c-10 16.66-17.66 34.55-24.43 50.34-1.82 4.25-3.56 8.29-5.24 12.07l-1.19 2.67-2.4-1.09 40.86 29.11a37.05 37.05 0 011.08-6.36c.28-1.11.57-2.27.89-4.19 2.28-13.53 5.75-20.33 10.94-21.4 11.77-2.43 22.91-7.5 31.87-11.57 8.65-3.93 14.91-6.78 18.91-6.1a47.63 47.63 0 018.05 2.49c4.32 1.58 9.69 3.56 11.9 2.34a2.57 2.57 0 001.2-1.94c1-4.84-6.65-14.23-14.19-17.32a39.74 39.74 0 00-14.29-2.83c-4.94-.13-9.82-3.87-13.75-10.54-3.24-5.51-5.33-12.35-5.33-17.43 0-9.44 6.38-15.16 12-20.21 4.33-3.88 16.16-2 19.69-1.31 3.29.63 4.57 3.33 6.18 6.75a54 54 0 004.49 8.06c2.44 3.57 5.47 5.18 8.08 4.29a3 3 0 002.17-2.11l-2-9.25c-.14-.62-.33-1.21-.52-1.78z" class="cls-3"/>
    <path d="M351 428.65a60.68 60.68 0 006.49 7.48 9.88 9.88 0 002 1.4 5.12 5.12 0 01.54-2.12l.09-.16 1.36-2.15a18.39 18.39 0 01-7.28-2.26 37.45 37.45 0 01-3.2-2.19zm-16.75-8.2c-1.41.7-2.86 1.35-4.34 2 2.16-.38 4.3-.82 6.37-1.37a11.39 11.39 0 015.65-.06 7.68 7.68 0 00-7.68-.57zM391 421a11.39 11.39 0 015.65.06c2.07.55 4.2 1 6.37 1.37a58.94 58.94 0 01-4.34-2 7.68 7.68 0 00-7.68.57zm-9 7.65c-1.12.83-2.19 1.57-3.2 2.19-3.51 2.17-9.12 2.73-12.29 2.26l-.39.06-2.58 4.11a1.25 1.25 0 00.13 1.17 2.76 2.76 0 002.23 1.29c2.16.13 7.25-1.39 9.6-3.6a59.82 59.82 0 006.5-7.48z" class="cls-3"/>
    <path d="M372.07 428.65c0 .13-.11.26-.16.38a13.59 13.59 0 004.78-1.56 69.94 69.94 0 0010.6-8.57 11.67 11.67 0 0113.17-2 77.35 77.35 0 0014.69 5.45c1.48.38 3 1.93 5.62 4.73a94.32 94.32 0 009 8.59c-2.07-6-4.6-13.18-5.74-15.57-.87-1.81-7.26-8.21-11.93-12.88l-3.1-3.15c-3.22-.24-6.69-.44-9.83-.62-3.35-.18-6.52-.36-8.93-.57A6.3 6.3 0 00385 405l-15.74 16.5 2.07 2.18a5.17 5.17 0 01.74 4.97z" class="cls-3"/>
    <path d="M498.74 524.81l-1.88.64c-.25-.74-.52-1.5-.78-2.25-6.29-18-16.91-39.61-30.85-62.86a179.77 179.77 0 01-8.77-16.93c-2-4.21-3.85-8.19-6.25-12.43-.71-1.26-1.44-2.58-2.19-3.93-2.9-5.21-6.19-11.12-9.23-15.43a9.78 9.78 0 00-2.3-2.33l-.15-.12-30.42-26.73a1.27 1.27 0 00-1.16 0 2.81 2.81 0 00-1.57 2.05c-.38 2.14-.54 5.5 2.41 10.07 1 1.48 5.23 5.75 9.35 9.87 7 7 11.62 11.71 12.7 14 1.53 3.2 5 13.31 8.22 22.77.28.85.3 2.11.31 5.15 0 11.33.16 41.45 24.36 53l-.85 1.79-.86 1.79c-26.44-12.6-26.57-44.53-26.61-56.55a38.61 38.61 0 00-.12-3.93l-.06-.17a57.25 57.25 0 01-5.19-3.85l-.41-.36c-.47-.39-.92-.78-1.36-1.17l-2.44-2.06a71.14 71.14 0 01-5.62-5 7.62 7.62 0 00-5.08-2.34 81 81 0 01-16.28-2.55 7.7 7.7 0 00-8.24 3 73.49 73.49 0 01-9.23 11.05 18.62 18.62 0 01-7.1 3.79c-.22.65-.44 1.31-.64 2l-1.58 7.43.31 1.51a4.7 4.7 0 01-.15 1.4 3.77 3.77 0 001.62 1c2.6.88 5.63-.72 8.08-4.29a54 54 0 004.49-8.06c1.61-3.42 2.89-6.12 6.18-6.75 3.53-.67 15.36-2.57 19.66 1.29 5.66 5.07 12 10.79 12 20.23 0 9.77-12.38 28.41-23.38 28.7a39.73 39.73 0 00-14.28 2.82c-7.86 3.22-16 12.62-14.94 17.33a2.55 2.55 0 001.2 1.9c2.36 1.31 8.09-.73 12.68-2.37a51.43 51.43 0 018-2.43c4.14-.7 11.75 2.25 22.28 6.31 9.6 3.71 21.55 8.32 32.79 10.64 5.22 1.08 8.71 8 11 21.7.26 1.57.5 2.81.72 4a77.45 77.45 0 011.2 8.1l40.88-30.61-.52.17zM320.8 407.22c-4.66 4.67-11.05 11.07-11.92 12.88-1.14 2.39-3.67 9.54-5.74 15.58a96.79 96.79 0 009-8.6c2.67-2.8 4.14-4.35 5.62-4.73a77.35 77.35 0 0014.69-5.45 11.67 11.67 0 0113.17 2 70.57 70.57 0 0010.6 8.57c2.75 1.69 8 2.15 10.13 1.62a2.74 2.74 0 001.92-1.71 1.24 1.24 0 00-.09-1.17l-20.17-21.14a6.32 6.32 0 00-5.34-2.19c-2.41.21-5.58.39-8.93.57-3.14.18-6.61.38-9.83.62z" class="cls-3"/>
    <path fill="#394349" d="M500.46 523.74l1.75-1-6.94-12.69a404.52 404.52 0 00-26.66-51.77 176.65 176.65 0 01-8.58-16.59c-2-4.28-3.92-8.32-6.38-12.69-.71-1.25-1.44-2.56-2.19-3.91-3-5.3-6.29-11.3-9.45-15.79a14 14 0 00-3.14-3.2l-30.47-26.77-.19-.15a5.18 5.18 0 00-5-.43 6.75 6.75 0 00-3.93 5c-.78 4.38.19 8.6 3 12.91a26.49 26.49 0 002.61 3.11l-5.49-.32c-3.32-.18-6.46-.36-8.81-.56a10.26 10.26 0 00-8.56 3.4l-15.55 16.31L351 402.4a10.26 10.26 0 00-8.61-3.47c-2.35.2-5.49.38-8.82.56l-5.48.32a26.49 26.49 0 002.61-3.11c2.78-4.31 3.76-8.53 3-12.91a6.73 6.73 0 00-3.94-5 5.16 5.16 0 00-5 .43l-30.67 26.92a14 14 0 00-3.13 3.2c-3.17 4.49-6.51 10.49-9.45 15.79-.75 1.35-1.48 2.66-2.19 3.91-2.46 4.37-4.36 8.41-6.38 12.68a176.73 176.73 0 01-8.58 16.6c-10.13 16.88-17.86 34.9-24.68 50.8-2.1 4.9-4.09 9.53-6 13.76l-.3.67-.1.24 1.21.55 2.4 1.09 1.19-2.67c1.68-3.78 3.42-7.82 5.24-12.07 6.77-15.79 14.44-33.68 24.43-50.34a178.63 178.63 0 008.77-16.94c2-4.21 3.85-8.18 6.25-12.42l2.19-3.93c2.9-5.21 6.19-11.12 9.23-15.43a9.78 9.78 0 012.3-2.33L327 382.44a1.25 1.25 0 011.15 0 2.76 2.76 0 011.57 2.05c.38 2.14.55 5.5-2.4 10.07-1 1.48-5.23 5.75-9.35 9.87-7 7-11.62 11.71-12.7 14-1.53 3.2-5 13.31-8.22 22.77-.28.85-.3 2.11-.31 5.15 0 11.33-.16 41.45-24.36 53l.85 1.79.86 1.79c26.44-12.6 26.57-44.53 26.61-56.55 0-1.64 0-3.49.11-3.89l.07-.21a57.25 57.25 0 005.19-3.85l.41-.35c.48-.4.94-.8 1.39-1.2l2.42-2a71.14 71.14 0 005.62-5 7.62 7.62 0 015.08-2.34 81.13 81.13 0 0016.28-2.55 7.71 7.71 0 018.24 3 73.49 73.49 0 009.25 11.01 19.39 19.39 0 007.93 4c.19.57.38 1.16.56 1.76l2 9.25a3 3 0 01-2.17 2.11c-2.61.89-5.64-.72-8.08-4.29a54 54 0 01-4.49-8.06c-1.61-3.42-2.89-6.12-6.18-6.75-3.53-.67-15.36-2.57-19.69 1.31-5.63 5.05-12 10.77-12 20.21 0 5.08 2.09 11.92 5.33 17.43 3.93 6.67 8.81 10.41 13.75 10.54a39.74 39.74 0 0114.28 2.88c7.54 3.09 15.23 12.48 14.19 17.32a2.57 2.57 0 01-1.2 1.94c-2.21 1.22-7.58-.76-11.9-2.34a47.63 47.63 0 00-8.05-2.49c-4-.68-10.26 2.17-18.91 6.1-9 4.07-20.1 9.14-31.87 11.57-5.19 1.07-8.66 7.87-10.94 21.4-.32 1.92-.61 3.08-.89 4.19a37.05 37.05 0 00-1.08 6.36c0 .37-.07.76-.11 1.18l4 .32a35 35 0 011.08-6.9c.28-1.13.6-2.42.95-4.49 2.38-14.18 5.58-17.71 7.83-18.18 12.21-2.52 23.58-7.69 32.71-11.84 7.4-3.37 13.8-6.27 16.61-5.8a45.92 45.92 0 017.34 2.3c5.59 2.05 11.37 4.19 15.18 2.09a6.45 6.45 0 003.16-4.57c1.35-6.22-6-17.52-16.56-21.83a43.91 43.91 0 00-15.68-3.12c-7.85-.21-15.22-15.13-15.22-24 0-7.67 5.19-12.33 10.72-17.28 2-1.85 9.91-1.56 16.26-.35 1.21.23 1.84 1.37 3.35 4.56a57.11 57.11 0 004.8 8.61c5.2 7.57 11 6.36 12.62 5.8a8 8 0 002.53-1.41 8 8 0 002.53 1.41c1.65.56 7.42 1.77 12.62-5.8a56.65 56.65 0 004.8-8.62c1.51-3.18 2.14-4.32 3.34-4.55 6.36-1.21 14.21-1.5 16.3.37 5.5 4.93 10.69 9.59 10.69 17.26 0 8.56-11.47 24.53-19.51 24.73a44.35 44.35 0 00-15.68 3.12c-8.93 3.66-18.86 14.68-17.31 21.84a6.41 6.41 0 003.14 4.52c3.93 2.19 10 0 16-2.1a50.16 50.16 0 017.34-2.25c3.06-.52 11.38 2.7 20.19 6.1 9.74 3.76 21.86 8.43 33.41 10.82 2.28.47 5.5 4.06 7.89 18.47.26 1.61.51 2.88.74 4.07a69.3 69.3 0 011.24 8.9l4-.32c0-.44-.08-.84-.11-1.24a77.45 77.45 0 00-1.2-8.1c-.22-1.15-.46-2.39-.72-4-2.28-13.73-5.77-20.62-11-21.7-11.24-2.32-23.19-6.93-32.79-10.64-10.53-4.06-18.14-7-22.28-6.31a51.43 51.43 0 00-8 2.43c-4.59 1.64-10.32 3.68-12.68 2.37a2.55 2.55 0 01-1.2-1.9c-1-4.71 7.08-14.11 14.94-17.33a39.73 39.73 0 0114.28-2.82c11-.29 23.38-18.93 23.38-28.7 0-9.44-6.38-15.16-12-20.23-4.3-3.86-16.13-2-19.66-1.29-3.29.63-4.57 3.33-6.18 6.75a54 54 0 01-4.49 8.06c-2.45 3.57-5.48 5.17-8.08 4.29a3.77 3.77 0 01-1.62-1 4.7 4.7 0 00.15-1.4l-.31-1.51 1.58-7.43c.2-.69.42-1.35.64-2a18.62 18.62 0 007.1-3.79 73.49 73.49 0 009.22-11.11 7.7 7.7 0 018.24-3 81 81 0 0016.28 2.55 7.62 7.62 0 015.08 2.34 71.14 71.14 0 005.62 5l2.44 2.06c.44.39.89.78 1.36 1.17l.41.36a57.25 57.25 0 005.19 3.85l.06.17a38.61 38.61 0 01.12 3.93c0 12 .17 43.95 26.61 56.55l.86-1.79.85-1.79c-24.2-11.53-24.32-41.65-24.36-53 0-3 0-4.3-.31-5.15-3.21-9.46-6.69-19.57-8.22-22.77-1.08-2.26-5.73-7-12.7-14-4.12-4.12-8.39-8.39-9.35-9.87-3-4.57-2.79-7.93-2.41-10.07a2.81 2.81 0 011.57-2.05 1.27 1.27 0 011.16 0l30.42 26.73.15.12a9.78 9.78 0 012.3 2.33c3 4.31 6.33 10.22 9.23 15.43.75 1.35 1.48 2.67 2.19 3.93 2.4 4.24 4.27 8.22 6.25 12.43a179.77 179.77 0 008.77 16.93c13.94 23.25 24.56 44.91 30.85 62.86.26.75.53 1.51.78 2.25l1.88-.64.52-.17 1.36-.46c-.05-.14-.11-.29-.16-.44zm-197.32-88.06c2.07-6 4.6-13.19 5.74-15.58.87-1.81 7.26-8.21 11.92-12.88l3.15-3.15c3.22-.24 6.69-.44 9.83-.62 3.35-.18 6.52-.36 8.93-.57a6.32 6.32 0 015.34 2.19l20.17 21.14a1.24 1.24 0 01.09 1.17 2.74 2.74 0 01-1.92 1.71c-2.1.53-7.38.07-10.13-1.62a70.57 70.57 0 01-10.6-8.57 11.67 11.67 0 00-13.17-2 77.35 77.35 0 01-14.69 5.45c-1.48.38-2.95 1.93-5.62 4.73a96.79 96.79 0 01-9.04 8.6zm33.14-14.63c-2.07.55-4.21 1-6.37 1.37a58.94 58.94 0 004.34-2 7.68 7.68 0 017.68.54 11.39 11.39 0 00-5.65.09zm21.19 15.08a60.68 60.68 0 01-6.49-7.48c1.12.83 2.19 1.57 3.19 2.19a18.39 18.39 0 007.28 2.26l-1.36 2.15-.09.16a5.12 5.12 0 00-.54 2.12 9.88 9.88 0 01-1.99-1.4zm18 0c-2.35 2.21-7.44 3.73-9.6 3.6a2.76 2.76 0 01-2.23-1.29 1.25 1.25 0 01-.13-1.17l2.58-4.11.39-.06c3.17.47 8.78-.09 12.29-2.26 1-.62 2.08-1.36 3.2-2.19a59.82 59.82 0 01-6.5 7.48zm21.2-15.08A11.39 11.39 0 00391 421a7.68 7.68 0 017.68-.54c1.41.7 2.86 1.35 4.34 2-2.15-.46-4.28-.86-6.35-1.41zm15.47-13.83c4.67 4.67 11.06 11.07 11.93 12.88 1.14 2.39 3.67 9.55 5.74 15.57a94.32 94.32 0 01-9-8.59c-2.67-2.8-4.14-4.35-5.62-4.73a77.35 77.35 0 01-14.69-5.45 11.67 11.67 0 00-13.17 2 69.94 69.94 0 01-10.6 8.57 13.59 13.59 0 01-4.78 1.56c0-.12.12-.25.16-.38a5.17 5.17 0 00-.79-5l-2.07-2.18L385 405a6.3 6.3 0 015.29-2.13c2.41.21 5.58.39 8.93.57 3.14.18 6.61.38 9.83.62z"/>
  </g>
  <g id="logo">
    <path d="M344.37 458.75a12.51 12.51 0 00-12.77 12c-.2 6 4.87 11.85 10.84 12.74a12.44 12.44 0 0012.47-5.66l-3.68-2.29a8.11 8.11 0 11-1.23-10.18l-3.23 3.24h9.54v-9.57l-3.24 3.25a12.43 12.43 0 00-8.7-3.53zm47.46 24.9a12.42 12.42 0 0010.55-5.81l-3.69-2.29a8.12 8.12 0 110-8.67l3.69-2.32a12.57 12.57 0 10-10.55 19.09z" class="cls-4"/>
    <path d="M388.05 471.22a3.8 3.8 0 103.8-3.8 3.8 3.8 0 00-3.8 3.8zM359 465.64c0 3.34 2.39 5.69 5.85 6.61l4.06 1.05c4.89 1.33 2.89 6.06-1.52 6.06a8.86 8.86 0 01-6.26-2.38l-2.54 3.59a13.58 13.58 0 008.8 3.08c4.92.1 9.11-3.3 9-7.43 0-3.87-3-6.22-6.61-7.15l-3.81-1c-4.19-1.21-2.32-5 1.4-5A8.65 8.65 0 01373 465l2.51-3.56a13.3 13.3 0 00-8.13-2.67c-4.49-.11-8.49 3.06-8.38 6.87z" class="cls-4"/>
  </g>
</svg>
