<svg xmlns="http://www.w3.org/2000/svg" xmlns:xlink="http://www.w3.org/1999/xlink" id="Layer_1" x="0" y="0" version="1.1" viewBox="0 0 124 107.9" xml:space="preserve">
  <defs>
    <path id="reuse-0" d="M-555 20.4l-.3.3-.1-.2c.2 0 .3 0 .4-.1zM-554.1 21l-.8.8-.2-.5c.4-.1.7-.2 1-.3z" class="st1"/>
  </defs>
  <style>
    .st0{fill:#fff}.st1{fill:#394349}.st4{fill:#ffc278}.st10,.st7,.st8,.st9{fill:#d67500;stroke:#ffc278;stroke-width:.1313;stroke-miterlimit:10}.st10,.st8,.st9{fill:#f59d20;stroke-width:.1309}.st10,.st9{fill:#ffb743}.st10{fill:#f59d20;stroke-width:.134}.st12,.st17,.st18{fill:none;stroke:#394349;stroke-miterlimit:10}.st17,.st18{fill:#d67500;stroke:#ffc278;stroke-width:8.540112e-02}.st18{fill:#f59d20;stroke-width:8.519094e-02}
  </style>
  <g id="XMLID_1_">
    <path d="M-555 20.4l-.3.3-.1-.2c.2 0 .3 0 .4-.1zM-554.1 21l-.8.8-.2-.5c.4-.1.7-.2 1-.3zM-531.4 6.3c-.3 1-1 2.5-2.8 3.8-.2.1-.4.3-.6.4-.1.1-.2.1-.4.2-.4.2-1 .4-1.7.7l-1.8-.3c-1.3-.2-2.6-.4-3.8-.6-1.4-.2-2.8-.1-4.2.4l-6.5 3.5c2.8-.5 4.9-.5 6.3-.4 1 .1 1.5.2 1.6.2h.1s.1 0 .1.1c-.4.2-.9.3-1.2.5-.8.3-1.4.6-1.9.8-.5 0-1.1 0-1.7.1-2.4.2-5.8.8-9.9 2.4l-6.2 3.4-1.7.9-.1-.2-1.1.7c-1.1 1-2.4 2-3.9 2.9v-.1s-.1 0-.1.1c-.2.2-.4.4-.7.5l.4-1.2V25c1.6-1 3-2 4.2-3.1.2-.2.5-.4.7-.7l1.1-1.1.5-.5c1.6-1.6 3.1-3.2 5-4.6 2.7-1.9 6-4.3 8.8-5.8.5-.3 1.1-.5 1.7-.6l18.2-4.9c1.1-.2 2 1.3 1.6 2.6z" class="st0"/>
    <path d="M-554.1 21l-.8.8-.2-.5c.4-.1.7-.2 1-.3zM-545.1 14.3c.2.1.7.2 1.3.5-.3.1-.7.2-1 .4l-1.5.6c-.4-.1-1.1-.1-1.9-.1-.5 0-1.1 0-1.7.1.2-.2.4-.3.5-.5.2-.2.5-.3.9-.5s.9-.4 1.5-.7c1 .1 1.5.2 1.6.2h.1c.1-.1.1-.1.2 0z" class="st1"/>
    <path d="M-530.6 6.5c-.4 1.5-1.2 2.7-2.5 3.8l-.9.6c-.2.1-.3.2-.5.3-.2.1-.5.3-.9.4-.2 0-.5-.1-.7-.1-.3-.1-.6-.1-.9-.2l-1.8-.3c.7-.2 1.3-.5 1.9-.7.6-.2 1-.4 1.3-.5.1 0 .1-.1.2-.1 2.2-1.3 2.8-2.7 3.1-3.7.1-.4 0-.9-.2-1.2-.1-.1-.3-.3-.5-.2l-18.2 4.9c-.5.1-1 .3-1.4.5-2.1 1.2-4.7 3-7 4.5-.6.4-1.2.8-1.7 1.2-1.1.8-2.1 1.6-3 2.5l-.5.5-1.2 1.2-.6.6c-.2.3-.5.5-.8.8l-.5.5c-.3.3-.6.6-1 .9-1.1 1-2.4 2-3.9 2.9v-.1l-.3-.6-.1-.2-.4-.6V24c.2-.1.3-.2.5-.3.8-.5 1.6-1.1 2.2-1.6 1.4-1.1 2.5-2.3 3.6-3.4 1.5-1.5 3-3.1 5-4.5.5-.4 1.1-.8 1.7-1.2 2.3-1.6 4.9-3.4 7.2-4.6.6-.3 1.3-.6 1.9-.7l18.2-4.9c.8-.1 1.6.2 2.1.8.7.8.9 1.9.6 2.9z" class="st1"/>
    <g id="XMLID_2_">
      <path d="M-555 20.4l-.3.3-.1-.2c.2 0 .3 0 .4-.1zM-523.1 26.1c-.2.3-.6.6-1.1.6-.5 0-1.2-.2-1.9-.4-1.7-5.4-5.6-7-7.3-7.7-1.6-.7-7.7-2.8-10.5-3.8-.6-.2-1-.4-1.3-.5-.1 0-.1 0-.1-.1h-.1c-.1 0-.7-.1-1.6-.2-1.3-.1-3.5-.1-6.3.4l6.5-3.5c1.4-.4 2.8-.6 4.2-.4 1.1.2 2.5.4 3.8.6l1.8.3c.3.1.6.1.9.2.2 0 .5.1.7.1 1.3.2 2.5.4 3.4.6.9.1 1.7.7 2.2 1.6l6.8 11.7c.1.2 0 .4-.1.5z" class="st0"/>
      <path d="M-522.2 25l-6.8-11.7c-.6-1.1-1.6-1.8-2.8-2-.6-.1-1.3-.2-2.1-.4-.4-.1-.8-.1-1.3-.2-.6-.1-1.1-.2-1.7-.3-1.9-.3-3.9-.7-5.5-.9-1.6-.2-3.2 0-4.7.4l-9.7 5.3-4 2.2-5.8 3.2-1.4.8H-565.9l6.2-3.4c4.1-1.6 7.4-2.2 9.9-2.4.6-.1 1.2-.1 1.7-.1.8 0 1.5 0 1.9.1.3 0 .6.1.6.1.4.1 2.5.9 4.9 1.8.7.3 1.5.5 2.2.8h.8c1.9.1 3.7.4 4.7 1.9 0 .1.1.1.1.2 1.1 1.6 2.4 3.5 3.8 4.9.4.4.9.8 1.5 1 .3.2.7.3 1.1.5.3.1.6.2.8.3.7.2 1.3.3 1.7.3 1.3 0 2.3-1.3 1.8-2.4zm-.9 1.1c-.2.3-.6.6-1.1.6-.5 0-1.2-.2-1.9-.4-1.7-5.4-5.6-7-7.3-7.7-1.6-.7-7.7-2.8-10.5-3.8-.6-.2-1-.4-1.3-.5-.1 0-.1 0-.1-.1h-.1c-.1 0-.7-.1-1.6-.2-1.3-.1-3.5-.1-6.3.4l6.5-3.5c1.4-.4 2.8-.6 4.2-.4 1.1.2 2.5.4 3.8.6l1.8.3c.3.1.6.1.9.2.2 0 .5.1.7.1 1.3.2 2.5.4 3.4.6.9.1 1.7.7 2.2 1.6l6.8 11.7c.1.2 0 .4-.1.5z" class="st0"/>
      <use class="st1" xlink:href="#reuse-0"/>
      <path d="M-521.6 27.1c-.5.9-1.5 1.4-2.6 1.4-.4 0-.9-.1-1.4-.2-.3-.1-.5-.1-.8-.2-.3-.1-.6-.2-1-.4-.1-.5-.2-.9-.4-1.3-.6-.3-1.1-.7-1.5-1-1.4-1.4-2.8-3.3-3.8-4.9-.4-.2-.7-.3-1-.4-.8-.3-2.6-1-4.7-1.8-.7-.3-1.5-.5-2.2-.8h3c2 .1 4.1.4 5.3 2.2 0 .1.1.1.1.2.3.5.7 1 1 1.5.8 1.2 1.8 2.5 2.8 3.5l.3.3c.4.3.8.5 1.3.8.3.1.6.3.9.4.8.3 1.5.4 1.9.4.4 0 .9-.2 1.1-.6.1-.1.2-.4.1-.6l-6.8-11.7c-.5-.9-1.3-1.4-2.2-1.6-.9-.1-2.1-.4-3.4-.6-.2 0-.5-.1-.7-.1-.3-.1-.6-.1-.9-.2l-1.8-.3c-1.3-.2-2.6-.4-3.8-.6-1.4-.2-2.8-.1-4.2.4l-6.5 3.5-2.3 1.2-4.3 2.3-6.2 3.4-1.7.9-.1-.2-.1-.2-.3-.6-.1-.2-.2-.4 1.3-.7 2.4-1.3 3.2-1.8 14.2-7.8c1.6-.5 3.4-.7 5.1-.5 2 .3 4.4.7 6.6 1.1h.2c.5.1.9.2 1.4.2.4.1.8.1 1.1.2.5.1 1 .2 1.4.2 1.5.2 2.8 1.2 3.5 2.5l6.8 11.8c.6 1 .5 1.8 0 2.6z" class="st1"/>
    </g>
    <g>
      <use class="st0" xlink:href="#reuse-0"/>
      <path d="M-526.4 28c-.1-.4-.2-.8-.3-1.1-.1-.3-.2-.7-.3-1-1.3-3.6-3.7-5.3-5.6-6.2-.4-.2-.8-.4-1.1-.5-.7-.3-2.5-1-4.4-1.7-2.6-.9-5.5-2-6.8-2.4-.4-.1-.6-.2-.6-.2s-.3-.1-.9-.1c-.5-.1-1.2-.1-2.2-.1-1.7 0-4.1.2-7 1-1.6.4-3.4 1-5.4 1.8-1.6.7-3.4 1.5-5.2 2.6-.7.4-1.4.8-2.2 1.3-.3.2-.5.3-.8.5-1.4.9-2.8 1.9-4.3 3-.1 0-.1.1-.2.1-7.6 5.9-14.1 13.7-19.9 21.2l-3.7 5.5c1.2 2.5 4 5.9 9.2 8.7 3.2 1.7 8.3 2.1 10.8 2.3.9 0 1.6-.5 1.9-1.3.6-1.7 1.9-4.5 4.6-4.4 10.7.3 20.9-10.8 28.1-10.1 6.2.6 9.3 3.2 11-.6.8-1.9-1.6-3.9-5-6.3-4.3-3.1-6.8-4-14.3-2.2-1.1.3-2.2 0-3-.7-1.6-1.6-.8-4.1 4.3-8.1.9-.7 3.7-2.3 6.9-3.8 1.9-.8 6.2 1.1 8.1 2.1 1.6.9.9 3.2 2.2 7.5 1.5 4.9 5.6 4 6 2.3l.4-4.5c.1-1.8 0-3.3-.3-4.6zm-.9 8.8c-.1.3-.6.7-1.3.7-1.3 0-2.4-1.1-3-3-.5-1.7-.7-3.1-.9-4.2-.2-1.7-.4-3.1-1.8-3.8-1.5-.8-6.4-3.2-8.8-2.1-3.3 1.5-6.1 3.1-7 3.9-3.5 2.8-5.3 5-5.4 6.9-.1.9.3 1.8 1 2.5 1 .9 2.4 1.3 3.9 1 7.3-1.8 9.5-.9 13.6 2 2.7 1.9 5.3 3.9 4.7 5.2-.8 1.9-1.8 1.8-5.1 1-1.4-.3-3.1-.7-5.1-.9-3.6-.3-7.7 2-12.1 4.4-4.9 2.7-10.5 5.8-16 5.7h-.1c-3.6 0-5.1 4-5.5 5.7-2-.1-7.8-.4-11.2-2.2-5.4-2.8-7.7-6.1-8.6-7.8l3.4-5c4.8-6.4 11.3-14.4 19.1-20.5.2-.2.4-.4.7-.5 0 0 .1 0 .1-.1v.1c1.5-.9 2.8-1.9 3.9-2.9l1.1-.7.1.2 1.7-.9 6.2-3.4c4.1-1.6 7.4-2.2 9.9-2.4.6-.1 1.2-.1 1.7-.1.8 0 1.5 0 1.9.1.3 0 .6.1.6.1.4.1 2.5.9 4.9 1.8.7.3 1.5.5 2.2.8 2 .7 3.9 1.4 4.7 1.8.3.1.6.3 1 .4 1.1 1.6 2.4 3.5 3.8 4.9.4.4.9.8 1.5 1 .1.4.3.8.4 1.3.3 1.3.5 2.9.5 4.7l-.7 4.3z" class="st0"/>
      <path d="M-532.3 20c-.2-.2-.4-.4-.6-.5-.3-.1-.5-.2-.8-.3-.7-.3-2.4-.9-4.2-1.6-.1-.1-.3-.1-.4-.1h-2.5c.7.3 1.5.5 2.2.8 2 .7 3.9 1.4 4.7 1.8.3.1.6.3 1 .4.5.2 1.1.5 1.6.9-.4-.5-.7-.9-1-1.4zm-23-4.4c-.1 0-.2.1-.4.1l-4.1 2.3c4.1-1.6 7.4-2.2 9.9-2.4.2-.2.4-.3.5-.5.2-.2.5-.3.9-.5-1.7.1-4 .3-6.8 1zm23 4.4c-.2-.2-.4-.4-.6-.5-.3-.1-.5-.2-.8-.3-.7-.3-2.4-.9-4.2-1.6-.1-.1-.3-.1-.4-.1h-2.5c.7.3 1.5.5 2.2.8 2 .7 3.9 1.4 4.7 1.8.3.1.6.3 1 .4.5.2 1.1.5 1.6.9-.4-.5-.7-.9-1-1.4zm6.7 8.3c-.1-.4-.2-.7-.2-1.1l-.3-.9c-1.7-5.4-5.6-7-7.3-7.7-1.6-.7-7.7-2.8-10.5-3.8-.6-.2-1-.4-1.3-.5-.1 0-.1 0-.1-.1h-.1c-.1 0-.7-.1-1.6-.2-1.3-.1-3.5-.1-6.3.4-1.1.2-2.3.5-3.6.9-1.5.4-3.1 1-4.8 1.7-.9.4-1.8.8-2.7 1.3-.8.4-1.6.8-2.4 1.3-1.3.8-2.7 1.6-4.2 2.6-.7.5-1.5 1-2.2 1.6-.2.1-.3.2-.5.4-.1.1-.2.1-.3.2-8.2 6.3-15 14.7-20 21.4l-4 5.9.2.5c1 2 3.5 5.9 9.6 9 4.6 2.4 12.1 3.2 13.3 1.8.7-.8 1.2-5.1 4.3-5.1h.1c6 .2 11.8-3.1 16.8-5.9 4.1-2.3 8-4.5 11.1-4.2 1.9.2 3.4.5 4.8.8 3 .7 5.6 1.3 7.1-2 1.2-2.8-2.4-5.3-5.2-7.4-4.3-3.1-7.1-4.2-14.9-2.3-.8.2-1.7 0-2.2-.5-.3-.3-.5-.7-.5-1.1.1-.9.9-2.6 4.7-5.6.9-.7 3.7-2.3 6.7-3.7 1.2-.5 4.6.7 7.2 2.1.5.3.6.9.9 2.5.2 1.2.4 2.6.9 4.4 1.2 4 3.9 4.3 4.7 4.3 1.4 0 2.7-.9 3-2l.4-4.6v-.1c-.2-1.7-.3-3.1-.6-4.3zm-1.3 4v.1l-.4 4.3c-.1.3-.6.7-1.3.7-1.3 0-2.4-1.1-3-3-.5-1.7-.7-3.1-.9-4.2-.2-1.7-.4-3.1-1.8-3.8-1.5-.8-6.4-3.2-8.8-2.1-3.3 1.5-6.1 3.1-7 3.9-3.5 2.8-5.3 5-5.4 6.9-.1.9.3 1.8 1 2.5 1 .9 2.4 1.3 3.9 1 7.3-1.8 9.5-.9 13.6 2 2.7 1.9 5.3 3.9 4.7 5.2-.8 1.9-1.8 1.8-5.1 1-1.4-.3-3.1-.7-5.1-.9-3.6-.3-7.7 2-12.1 4.4-4.9 2.7-10.5 5.8-16 5.7h-.1c-2.6 0-4.1 2.1-4.9 3.9-.5 1.1-1.6 1.8-2.8 1.7-2.6-.2-6.5-.8-9-2.1-4.6-2.4-7-5.2-8.1-7-.3-.5-.3-1.1 0-1.6l2.9-4.3c4.8-6.4 11.3-14.4 19.1-20.5.2-.2.4-.4.7-.5 0 0 .1 0 .1-.1 1.4-1.1 2.7-2 4-2.9l1.1-.7c.4-.2.7-.5 1.1-.7 2.5-1.5 4.8-2.6 6.9-3.4 4.1-1.6 7.4-2.2 9.9-2.4.6-.1 1.2-.1 1.7-.1.8 0 1.5 0 1.9.1.3 0 .6.1.6.1.4.1 2.5.9 4.9 1.8.7.3 1.5.5 2.2.8 2 .7 3.9 1.4 4.7 1.8.3.1.6.3 1 .4.5.2 1.1.5 1.6.9 1.1.8 2.3 2 3.2 3.8.2.4.4.8.5 1.3.1.4.3.8.4 1.3 0 1.4.2 2.9.1 4.7zm-5.4-12.3c-.2-.2-.4-.4-.6-.5-.3-.1-.5-.2-.8-.3-.7-.3-2.4-.9-4.2-1.6-.1-.1-.3-.1-.4-.1h-2.5c.7.3 1.5.5 2.2.8 2 .7 3.9 1.4 4.7 1.8.3.1.6.3 1 .4.5.2 1.1.5 1.6.9-.4-.5-.7-.9-1-1.4z" class="st1"/>
      <path d="M-527.3 27.7c-.1-.5-.2-.9-.4-1.3-.6-.3-1.1-.7-1.5-1-1.4-1.4-2.8-3.3-3.8-4.9-.4-.2-.7-.3-1-.4-.8-.3-2.6-1-4.7-1.8-.7-.3-1.5-.5-2.2-.8-2.4-.9-4.5-1.6-4.9-1.8-.1 0-.3-.1-.6-.1-.4-.1-1.1-.1-1.9-.1-.5 0-1.1 0-1.7.1-2.4.2-5.8.8-9.8 2.3-.1 0-.1.1-.2.1l-6.1 3.4-1.7.9-.1-.2-1.1.7c-1.1 1-2.4 2-3.9 2.9v-.1s-.1 0-.1.1c-.2.2-.4.4-.7.5-7.7 6.2-14.2 14.2-19.1 20.5l-2.9 4.2c-.3.5-.3 1.1 0 1.6 1.2 1.8 3.5 4.6 8.1 7 2.9 1.5 7.6 2 10.1 2.2.7 0 1.2-.4 1.5-1 .7-1.9 2.2-4.7 5.2-4.7h.1c5.5.2 11.1-3 16-5.7 4.4-2.4 8.6-4.8 12.1-4.4 2 .2 3.7.6 5.1.9 3.3.7 4.2.9 5.1-1 .6-1.3-2-3.3-4.7-5.2-4.1-2.9-6.3-3.8-13.6-2-1.4.4-2.9 0-3.9-1-.7-.7-1.1-1.5-1-2.5.1-1.9 1.9-4.2 5.4-6.9 1-.8 3.8-2.4 7-3.9 2.4-1.1 7.4 1.3 8.8 2.1 1.4.7 1.5 2.1 1.8 3.8.2 1.1.4 2.5.9 4.2.6 1.9 1.8 3.1 3 3 .7 0 1.2-.4 1.3-.7l.4-4.3v-.1c.2-1.8 0-3.3-.3-4.6zm-27.7-7.3l-.3.3-.1-.2c.2 0 .3 0 .4-.1zm-.1.9l.9-.3-.8.8-.1-.5z" class="st0"/>
    </g>
  </g>
  <defs>
    <path id="SVGID_1_" d="M-519 40.5c.1.6-6.4 11.9-6.4 11.9l-25.5-13.8s13.4-11.4 15.5-10.3c1.8 1 .9 1.4 2 6.1 1.6 6.7 7.4 5.1 7.5 2.7l.3-3.4c.2-11.1 6.5 6.3 6.6 6.8z"/>
  </defs>
  <clipPath id="SVGID_2_">
    <use overflow="visible" xlink:href="#SVGID_1_"/>
  </clipPath>
  <g clip-path="url(#SVGID_2_)">
    <path fill="#d67500" d="M-540.4 32.2c-1.8 3.2.9 8.3 6.2 11.3s11 2.8 12.9-.4c.1-.2-1.5 2.7-1.5 2.7-1.8 3.2-7.6 3.4-12.9.4-5.3-3-8-8-6.2-11.3 0 0 1.6-2.9 1.5-2.7z"/>
    <path d="M-528.4 48.5c-2.3 0-5-.7-7.5-2.2-2.6-1.5-4.7-3.5-5.9-5.7-1.2-2.2-1.4-4.3-.4-6 .7-1.2 1.1-1.9 1.3-2.3.1-.1.1-.2.2-.4.2-.2.2-.2.3-.1l.2.1-.1.3c-.8 1.5-.7 3.4.4 5.4 1.1 2.1 3.2 4 5.7 5.4 5.1 2.9 10.7 2.8 12.5-.3.2-.2.2-.2.4-.1l.2.1-.1.3c-.1.3-1.5 2.7-1.5 2.7-.9 1.9-3.1 2.8-5.7 2.8zm-12.8-14.3l-.4.8c-.8 1.5-.7 3.4.4 5.4 1.1 2.1 3.2 4 5.7 5.4 5.1 2.9 10.7 2.8 12.5-.3.2-.3.3-.6.4-.8-2.7 1.7-7.3 1.3-11.7-1.1-2.6-1.5-4.7-3.5-5.9-5.7-.7-1.2-1.1-2.5-1-3.7zm.6-2.2z" class="st4"/>
    <ellipse cx="-530.7" cy="37.8" fill="#ffb743" rx="7.1" ry="11" transform="rotate(-58.795 -530.692 37.838)"/>
    <path d="M-527.3 46.3c-2.3 0-4.9-.7-7.3-2.1-5.4-3.1-8.2-8.4-6.2-11.9 2-3.5 8-3.9 13.4-.8 2.6 1.5 4.7 3.5 5.8 5.7 1.2 2.3 1.3 4.5.3 6.2-1 1.9-3.3 2.9-6 2.9zm-13-13.7c-1.8 3.2.8 8.3 5.9 11.2 5.1 2.9 10.8 2.6 12.6-.6.9-1.6.8-3.6-.3-5.7s-3.1-4.1-5.6-5.5c-5.1-2.9-10.8-2.7-12.6.6z" class="st4"/>
    <g>
      <ellipse cx="-530.7" cy="37.5" fill="#f59d20" rx="6.3" ry="10.1" transform="rotate(-62.264 -530.681 37.494)"/>
      <path d="M-527.6 45.5c-2.2 0-4.5-.7-6.7-1.9-2.4-1.3-4.3-3.2-5.3-5.2-1.1-2.1-1.2-4.1-.3-5.7 1.8-3.2 7.3-3.5 12.3-.7 2.4 1.3 4.3 3.2 5.3 5.2 1.1 2.1 1.2 4.1.3 5.7-.9 1.6-2.7 2.5-5 2.6h-.6zm-6.8-14.9c-2.3 0-4.1.8-5 2.4-.8 1.4-.7 3.2.3 5.1 1 1.9 2.8 3.7 5.1 5 2.3 1.3 4.7 1.9 6.9 1.8 2.1-.1 3.8-.9 4.5-2.3.8-1.4.7-3.2-.3-5.1-1-1.9-2.8-3.7-5.1-5-2.1-1.3-4.4-1.9-6.4-1.9z" class="st4"/>
    </g>
  </g>
  <path d="M80 63.2c0 5.1-6.7 9.2-15 9.2s-15-4.1-15-9.2v4.3c0 5.1 6.7 9.2 15 9.2s15-4.1 15-9.2v-4.3z" class="st7"/>
  <ellipse cx="65" cy="63.4" class="st8" rx="15" ry="9.5"/>
  <path d="M80 59.9c0 5.1-6.7 9.2-15 9.2S50 65 50 59.9v4.3c0 5.1 6.7 9.2 15 9.2s15-4.1 15-9.2v-4.3z" class="st7"/>
  <ellipse cx="65" cy="60.4" class="st8" rx="15" ry="9.5"/>
  <path d="M80 56.6c0 5.1-6.7 9.2-15 9.2s-15-4.1-15-9.2v4.3c0 5.1 6.7 9.2 15 9.2s15-4.1 15-9.2v-4.3z" class="st7"/>
  <ellipse cx="65" cy="57.4" class="st8" rx="15" ry="9.5"/>
  <path d="M80 53.3c0 5.1-6.7 9.2-15 9.2s-15-4.1-15-9.2v4.3c0 5.1 6.7 9.2 15 9.2s15-4.1 15-9.2v-4.3z" class="st7"/>
  <ellipse cx="65" cy="53.4" class="st8" rx="15" ry="9.5"/>
  <path d="M80 50c0 5.1-6.7 9.2-15 9.2S50 55 50 50v4.3c0 5.1 6.7 9.2 15 9.2s15-4.1 15-9.2V50z" class="st7"/>
  <ellipse cx="65" cy="50.4" class="st8" rx="15" ry="9.5"/>
  <path d="M80 46.7c0 5.1-6.7 9.2-15 9.2s-15-4.1-15-9.2V51c0 5.1 6.7 9.2 15 9.2s15-4.1 15-9.2v-4.3z" class="st7"/>
  <ellipse cx="65" cy="47.4" class="st8" rx="15" ry="9.5"/>
  <path d="M80 43.3c0 5.1-6.7 9.2-15 9.2s-15-4.1-15-9.2v4.3c0 5.1 6.7 9.2 15 9.2s15-4.1 15-9.2v-4.3z" class="st7"/>
  <ellipse cx="65" cy="43.4" class="st8" rx="15" ry="9.5"/>
  <g>
    <path d="M80 40c0 5.1-6.7 9.2-15 9.2S50 45.1 50 40v4.3c0 5.1 6.7 9.2 15 9.2s15-4.1 15-9.2V40z" class="st7"/>
    <ellipse cx="65" cy="40.4" class="st8" rx="15" ry="9.5"/>
  </g>
  <g>
    <path d="M80 36.7c0 5.1-6.7 9.2-15 9.2s-15-4.1-15-9.2V41c0 5.1 6.7 9.2 15 9.2s15-4.1 15-9.2v-4.3z" class="st7"/>
    <ellipse cx="65" cy="37.4" class="st8" rx="15" ry="9.5"/>
  </g>
  <g>
    <path d="M80 33.4c0 5.1-6.7 9.2-15 9.2s-15-4.1-15-9.2v4.3c0 5.1 6.7 9.2 15 9.2s15-4.1 15-9.2v-4.3z" class="st7"/>
    <ellipse cx="65" cy="33.4" class="st8" rx="15" ry="9.5"/>
  </g>
  <g>
    <path d="M80 30.1c0 5.1-6.7 9.2-15 9.2s-15-4.1-15-9.2v4.3c0 5.1 6.7 9.2 15 9.2s15-4.1 15-9.2v-4.3z" class="st7"/>
    <ellipse cx="65" cy="30.4" class="st8" rx="15" ry="9.5"/>
  </g>
  <g>
    <path d="M80 26.8c0 5.1-6.7 9.2-15 9.2s-15-4.1-15-9.2v4.3c0 5.1 6.7 9.2 15 9.2s15-4.1 15-9.2v-4.3z" class="st7"/>
    <ellipse cx="65" cy="27.4" class="st8" rx="15" ry="9.5"/>
  </g>
  <g>
    <path d="M80 23.5c0 5.1-6.7 9.2-15 9.2s-15-4.1-15-9.2v4.3c0 5.1 6.7 9.2 15 9.2s15-4.1 15-9.2v-4.3z" class="st7"/>
    <ellipse cx="65" cy="24.4" class="st8" rx="15" ry="9.5"/>
  </g>
  <g>
    <path d="M80 20.5c0 5.1-6.7 9.2-15 9.2s-15-4.1-15-9.2v4.3c0 5.1 6.7 9.2 15 9.2s15-4.1 15-9.2v-4.3z" class="st7"/>
    <ellipse cx="65" cy="21.4" class="st9" rx="15" ry="9.5"/>
    <ellipse cx="65" cy="21.1" class="st10" rx="14" ry="8.8"/>
  </g>
  <g>
    <path d="M107 74.9c0 5.1-6.7 9.2-15 9.2S77 80 77 74.9v4.3c0 5.1 6.7 9.2 15 9.2s15-4.1 15-9.2v-4.3z" class="st7"/>
    <ellipse cx="92" cy="75.4" class="st8" rx="15" ry="9.5"/>
    <path d="M107 71.6c0 5.1-6.7 9.2-15 9.2s-15-4.1-15-9.2v4.3c0 5.1 6.7 9.2 15 9.2s15-4.1 15-9.2v-4.3z" class="st7"/>
    <ellipse cx="92" cy="72.4" class="st8" rx="15" ry="9.5"/>
    <path d="M107 68.3c0 5.1-6.7 9.2-15 9.2s-15-4.1-15-9.2v4.3c0 5.1 6.7 9.2 15 9.2s15-4.1 15-9.2v-4.3z" class="st7"/>
    <ellipse cx="92" cy="68.4" class="st8" rx="15" ry="9.5"/>
    <path d="M107 65c0 5.1-6.7 9.2-15 9.2S77 70 77 65v4.3c0 5.1 6.7 9.2 15 9.2s15-4.1 15-9.2V65z" class="st7"/>
    <ellipse cx="92" cy="65.4" class="st8" rx="15" ry="9.5"/>
    <path d="M107 61.7c0 5.1-6.7 9.2-15 9.2s-15-4.1-15-9.2V66c0 5.1 6.7 9.2 15 9.2s15-4.1 15-9.2v-4.3z" class="st7"/>
    <ellipse cx="92" cy="62.4" class="st8" rx="15" ry="9.5"/>
    <path d="M107 58.4c0 5.1-6.7 9.2-15 9.2s-15-4.1-15-9.2v4.3c0 5.1 6.7 9.2 15 9.2s15-4.1 15-9.2v-4.3z" class="st7"/>
    <ellipse cx="92" cy="58.4" class="st8" rx="15" ry="9.5"/>
    <path d="M107 55.1c0 5.1-6.7 9.2-15 9.2s-15-4.1-15-9.2v4.3c0 5.1 6.7 9.2 15 9.2s15-4.1 15-9.2v-4.3z" class="st7"/>
    <ellipse cx="92" cy="55.4" class="st8" rx="15" ry="9.5"/>
    <g>
      <path d="M107 51.7c0 5.1-6.7 9.2-15 9.2s-15-4.1-15-9.2V56c0 5.1 6.7 9.2 15 9.2s15-4.1 15-9.2v-4.3z" class="st7"/>
      <ellipse cx="92" cy="52.4" class="st8" rx="15" ry="9.5"/>
    </g>
    <g>
      <path d="M107 48.4c0 5.1-6.7 9.2-15 9.2s-15-4.1-15-9.2v4.3c0 5.1 6.7 9.2 15 9.2s15-4.1 15-9.2v-4.3z" class="st7"/>
      <ellipse cx="92" cy="48.4" class="st8" rx="15" ry="9.5"/>
    </g>
    <g>
      <path d="M107 45.1c0 5.1-6.7 9.2-15 9.2s-15-4.1-15-9.2v4.3c0 5.1 6.7 9.2 15 9.2s15-4.1 15-9.2v-4.3z" class="st7"/>
      <ellipse cx="92" cy="45.4" class="st8" rx="15" ry="9.5"/>
    </g>
    <g>
      <path d="M107 41.8c0 5.1-6.7 9.2-15 9.2s-15-4.1-15-9.2v4.3c0 5.1 6.7 9.2 15 9.2s15-4.1 15-9.2v-4.3z" class="st7"/>
      <ellipse cx="92" cy="42.4" class="st8" rx="15" ry="9.5"/>
    </g>
    <g>
      <path d="M107 38.5c0 5.1-6.7 9.2-15 9.2s-15-4.1-15-9.2v4.3c0 5.1 6.7 9.2 15 9.2s15-4.1 15-9.2v-4.3z" class="st7"/>
      <ellipse cx="92" cy="39.4" class="st8" rx="15" ry="9.5"/>
    </g>
    <g>
      <path d="M107 35.2c0 5.1-6.7 9.2-15 9.2s-15-4.1-15-9.2v4.3c0 5.1 6.7 9.2 15 9.2s15-4.1 15-9.2v-4.3z" class="st7"/>
      <ellipse cx="92" cy="35.4" class="st8" rx="15" ry="9.5"/>
    </g>
    <g>
      <path d="M107 32.2c0 5.1-6.7 9.2-15 9.2s-15-4.1-15-9.2v4.3c0 5.1 6.7 9.2 15 9.2s15-4.1 15-9.2v-4.3z" class="st7"/>
      <ellipse cx="92" cy="32.4" class="st9" rx="15" ry="9.5"/>
      <ellipse cx="92" cy="32.1" class="st10" rx="14" ry="8.8"/>
    </g>
  </g>
  <g>
    <path d="M79 81c0 5.1-6.7 9.2-15 9.2S49 86.1 49 81v4.3c0 5.1 6.7 9.2 15 9.2s15-4.1 15-9.2V81z" class="st7"/>
    <ellipse cx="64" cy="81.4" class="st9" rx="15" ry="9.5"/>
    <ellipse cx="64.5" cy="81.4" fill="#f59d20" stroke="#ffc278" stroke-miterlimit="10" stroke-width=".129" rx="13.5" ry="8.5"/>
  </g>
  <g>
    <path d="M49 75.7c0 5.1-6.7 9.2-15 9.2s-15-4.1-15-9.2V80c0 5.1 6.7 9.2 15 9.2s15-4.1 15-9.2v-4.3z" class="st7"/>
    <ellipse cx="34" cy="76.4" class="st8" rx="15" ry="9.5"/>
  </g>
  <g>
    <path d="M55 71.8c0 5.1-6.7 9.2-15 9.2s-15-4.1-15-9.2v4.3c0 5.1 6.7 9.2 15 9.2s15-4.1 15-9.2v-4.3z" class="st7"/>
    <ellipse cx="40" cy="72.4" class="st8" rx="15" ry="9.5"/>
  </g>
  <g>
    <path d="M53 68.5c0 5.1-6.7 9.2-15 9.2s-15-4.1-15-9.2v4.3c0 5.1 6.7 9.2 15 9.2s15-4.1 15-9.2v-4.3z" class="st7"/>
    <ellipse cx="38" cy="69.4" class="st8" rx="15" ry="9.5"/>
  </g>
  <g>
    <path d="M46 65.1c0 5.1-6.7 9.2-15 9.2s-15-4.1-15-9.2v4.3c0 5.1 6.7 9.2 15 9.2s15-4.1 15-9.2v-4.3z" class="st7"/>
    <ellipse cx="31" cy="65.4" class="st8" rx="15" ry="9.5"/>
  </g>
  <g>
    <path d="M50 61.1c0 5.1-6.7 9.2-15 9.2s-15-4.1-15-9.2v4.3c0 5.1 6.7 9.2 15 9.2s15-4.1 15-9.2v-4.3z" class="st7"/>
    <ellipse cx="35" cy="61.4" class="st8" rx="15" ry="9.5"/>
  </g>
  <g>
    <path d="M50 57.8c0 5.1-6.7 9.2-15 9.2s-15-4.1-15-9.2v4.3c0 5.1 6.7 9.2 15 9.2s15-4.1 15-9.2v-4.3z" class="st7"/>
    <ellipse cx="35" cy="58.4" class="st8" rx="15" ry="9.5"/>
  </g>
  <g>
    <path d="M50 54.6c0 5.1-6.7 9.2-15 9.2s-15-4.1-15-9.2v4.3c0 5.1 6.7 9.2 15 9.2s15-4.1 15-9.2v-4.3z" class="st7"/>
    <ellipse cx="35" cy="55.4" class="st8" rx="15" ry="9.5"/>
  </g>
  <g>
    <path d="M50 51.3c0 5.1-6.7 9.2-15 9.2s-15-4.1-15-9.2v4.3c0 5.1 6.7 9.2 15 9.2s15-4.1 15-9.2v-4.3z" class="st7"/>
    <ellipse cx="35" cy="51.4" class="st8" rx="15" ry="9.5"/>
  </g>
  <g>
    <path d="M53 48c0 5.1-6.7 9.2-15 9.2S23 53.1 23 48v4.3c0 5.1 6.7 9.2 15 9.2s15-4.1 15-9.2V48z" class="st7"/>
    <ellipse cx="38" cy="48.4" class="st9" rx="15" ry="9.5"/>
    <ellipse cx="38" cy="48.1" class="st10" rx="14" ry="8.8"/>
  </g>
  <g>
    <path d="M-257.7 41.4h73.5c2.2 0 3-2.9 1.1-4l-36.7-19.9c-.7-.4-1.5-.4-2.2 0l-36.7 19.9c-2 1.1-1.3 4 1 4z" class="st12"/>
    <path fill="none" stroke="#394349" stroke-miterlimit="10" stroke-width="1.007" d="M-251 78.4c-.8 0-1.5.7-1.5 1.5s.7 1.5 1.5 1.5h10c.8 0 1.5-.7 1.5-1.5s-.7-1.5-1.5-1.5h-1.5v-34h1.5c.8 0 1.5-.7 1.5-1.5s-.7-1.5-1.5-1.5h-10c-.8 0-1.5.7-1.5 1.5s.7 1.5 1.5 1.5h1.5v34h-1.5z"/>
    <path fill="none" stroke="#394349" stroke-miterlimit="10" stroke-width="1.012" d="M-201 78.4c-.8 0-1.5.7-1.5 1.5s.7 1.5 1.5 1.5h10c.8 0 1.5-.7 1.5-1.5s-.7-1.5-1.5-1.5h-1.5v-34h1.5c.8 0 1.5-.7 1.5-1.5s-.7-1.5-1.5-1.5h-10c-.8 0-1.5.7-1.5 1.5s.7 1.5 1.5 1.5h1.5v34h-1.5z"/>
    <path d="M-259.5 81.4h76v6h-76z" class="st12"/>
  </g>
  <g>
    <path fill="#f59d20" stroke="#383838" stroke-miterlimit="10" stroke-width=".993" d="M-114.5 27.4h75v12h-75z"/>
    <path d="M-114.5 39.4h75v48h-75z" class="st12"/>
    <path fill="none" stroke="#394349" stroke-miterlimit="10" stroke-width="2" d="M-93.5 61.4L-81 73.9l21.5-24.5"/>
    <path d="M-106 22.9h2v11h-2zM-50 22.9h2v11h-2z" class="st1"/>
  </g>
  <g>
    <path d="M-494.5 84.4c0 5.1-6.7 9.2-15 9.2s-15-4.1-15-9.2v4.3c0 5.1 6.7 9.2 15 9.2s15-4.1 15-9.2v-4.3z" class="st7"/>
    <ellipse cx="-509.5" cy="85.2" class="st8" rx="15" ry="9.5"/>
  </g>
  <g>
    <path d="M-488.5 80.6c0 5.1-6.7 9.2-15 9.2s-15-4.1-15-9.2v4.3c0 5.1 6.7 9.2 15 9.2s15-4.1 15-9.2v-4.3z" class="st7"/>
    <ellipse cx="-503.5" cy="81.2" class="st8" rx="15" ry="9.5"/>
  </g>
  <g>
    <path d="M-490.5 77.3c0 5.1-6.7 9.2-15 9.2s-15-4.1-15-9.2v4.3c0 5.1 6.7 9.2 15 9.2s15-4.1 15-9.2v-4.3z" class="st7"/>
    <ellipse cx="-505.5" cy="78.2" class="st8" rx="15" ry="9.5"/>
  </g>
  <g>
    <path d="M-497.5 73.9c0 5.1-6.7 9.2-15 9.2s-15-4.1-15-9.2v4.3c0 5.1 6.7 9.2 15 9.2s15-4.1 15-9.2v-4.3z" class="st7"/>
    <ellipse cx="-512.5" cy="74.2" class="st8" rx="15" ry="9.5"/>
  </g>
  <g>
    <path d="M-493.5 69.8c0 5.1-6.7 9.2-15 9.2s-15-4.1-15-9.2v4.3c0 5.1 6.7 9.2 15 9.2s15-4.1 15-9.2v-4.3z" class="st7"/>
    <ellipse cx="-508.5" cy="70.2" class="st8" rx="15" ry="9.5"/>
  </g>
  <g>
    <path d="M-493.5 66.6c0 5.1-6.7 9.2-15 9.2s-15-4.1-15-9.2v4.3c0 5.1 6.7 9.2 15 9.2s15-4.1 15-9.2v-4.3z" class="st7"/>
    <ellipse cx="-508.5" cy="67.2" class="st8" rx="15" ry="9.5"/>
  </g>
  <g>
    <path d="M-493.5 63.3c0 5.1-6.7 9.2-15 9.2s-15-4.1-15-9.2v4.3c0 5.1 6.7 9.2 15 9.2s15-4.1 15-9.2v-4.3z" class="st7"/>
    <ellipse cx="-508.5" cy="64.2" class="st8" rx="15" ry="9.5"/>
  </g>
  <g>
    <path d="M-493.5 60c0 5.1-6.7 9.2-15 9.2s-15-4.1-15-9.2v4.3c0 5.1 6.7 9.2 15 9.2s15-4.1 15-9.2V60z" class="st7"/>
    <ellipse cx="-508.5" cy="60.2" class="st8" rx="15" ry="9.5"/>
  </g>
  <g>
    <path d="M-490.5 56.7c0 5.1-6.7 9.2-15 9.2s-15-4.1-15-9.2V61c0 5.1 6.7 9.2 15 9.2s15-4.1 15-9.2v-4.3z" class="st7"/>
    <ellipse cx="-505.5" cy="57.2" class="st9" rx="15" ry="9.5"/>
    <ellipse cx="-505.5" cy="56.9" class="st10" rx="14" ry="8.8"/>
  </g>
  <g>
    <path d="M-208 72.1c0 2.7-5.4 4.8-12.1 4.8-6.7 0-12.1-2.2-12.1-4.8v2.2c0 2.7 5.4 4.8 12.1 4.8 6.7 0 12.1-2.2 12.1-4.8v-2.2z" class="st17"/>
    <ellipse cx="-220.1" cy="72.4" class="st18" rx="12.1" ry="5"/>
    <path d="M-208 70.4c0 2.7-5.4 4.8-12.1 4.8-6.7 0-12.1-2.2-12.1-4.8v2.2c0 2.7 5.4 4.8 12.1 4.8 6.7 0 12.1-2.2 12.1-4.8v-2.2z" class="st17"/>
    <ellipse cx="-220.1" cy="70.9" class="st18" rx="12.1" ry="5"/>
    <path d="M-208 68.7c0 2.7-5.4 4.8-12.1 4.8-6.7 0-12.1-2.2-12.1-4.8v2.2c0 2.7 5.4 4.8 12.1 4.8 6.7 0 12.1-2.2 12.1-4.8v-2.2z" class="st17"/>
    <ellipse cx="-220.1" cy="68.8" class="st18" rx="12.1" ry="5"/>
    <path d="M-208 66.9c0 2.7-5.4 4.8-12.1 4.8-6.7 0-12.1-2.2-12.1-4.8v2.2c0 2.7 5.4 4.8 12.1 4.8 6.7 0 12.1-2.2 12.1-4.8v-2.2z" class="st17"/>
    <ellipse cx="-220.1" cy="67.2" class="st18" rx="12.1" ry="5"/>
    <path d="M-208 65.2c0 2.7-5.4 4.8-12.1 4.8-6.7 0-12.1-2.2-12.1-4.8v2.2c0 2.7 5.4 4.8 12.1 4.8 6.7 0 12.1-2.2 12.1-4.8v-2.2z" class="st17"/>
    <ellipse cx="-220.1" cy="65.6" class="st18" rx="12.1" ry="5"/>
    <path d="M-208 63.5c0 2.7-5.4 4.8-12.1 4.8-6.7 0-12.1-2.2-12.1-4.8v2.2c0 2.7 5.4 4.8 12.1 4.8 6.7 0 12.1-2.2 12.1-4.8v-2.2z" class="st17"/>
    <ellipse cx="-220.1" cy="63.5" class="st18" rx="12.1" ry="5"/>
    <path d="M-208 61.7c0 2.7-5.4 4.8-12.1 4.8-6.7 0-12.1-2.2-12.1-4.8v2.2c0 2.7 5.4 4.8 12.1 4.8 6.7 0 12.1-2.2 12.1-4.8v-2.2z" class="st17"/>
    <ellipse cx="-220.1" cy="62" class="st18" rx="12.1" ry="5"/>
    <g>
      <path d="M-208 60c0 2.7-5.4 4.8-12.1 4.8-6.7 0-12.1-2.2-12.1-4.8v2.2c0 2.7 5.4 4.8 12.1 4.8 6.7 0 12.1-2.2 12.1-4.8V60z" class="st17"/>
      <ellipse cx="-220.1" cy="60.4" class="st18" rx="12.1" ry="5"/>
    </g>
    <g>
      <path d="M-208 58.3c0 2.7-5.4 4.8-12.1 4.8-6.7 0-12.1-2.2-12.1-4.8v2.2c0 2.7 5.4 4.8 12.1 4.8 6.7 0 12.1-2.2 12.1-4.8v-2.2z" class="st17"/>
      <ellipse cx="-220.1" cy="58.3" class="st18" rx="12.1" ry="5"/>
    </g>
    <g>
      <path d="M-208 56.6c0 2.7-5.4 4.8-12.1 4.8-6.7 0-12.1-2.2-12.1-4.8v2.2c0 2.7 5.4 4.8 12.1 4.8 6.7 0 12.1-2.2 12.1-4.8v-2.2z" class="st17"/>
      <ellipse cx="-220.1" cy="56.7" class="st18" rx="12.1" ry="5"/>
    </g>
    <g>
      <path d="M-208 54.8c0 2.7-5.4 4.8-12.1 4.8-6.7 0-12.1-2.2-12.1-4.8V57c0 2.7 5.4 4.8 12.1 4.8 6.7 0 12.1-2.2 12.1-4.8v-2.2z" class="st17"/>
      <ellipse cx="-220.1" cy="55.1" class="st18" rx="12.1" ry="5"/>
    </g>
    <g>
      <path d="M-208 53.1c0 2.7-5.4 4.8-12.1 4.8-6.7 0-12.1-2.2-12.1-4.8v2.2c0 2.7 5.4 4.8 12.1 4.8 6.7 0 12.1-2.2 12.1-4.8v-2.2z" class="st17"/>
      <ellipse cx="-220.1" cy="53.6" class="st18" rx="12.1" ry="5"/>
    </g>
    <g>
      <path d="M-208 51.4c0 2.7-5.4 4.8-12.1 4.8-6.7 0-12.1-2.2-12.1-4.8v2.2c0 2.7 5.4 4.8 12.1 4.8 6.7 0 12.1-2.2 12.1-4.8v-2.2z" class="st17"/>
      <ellipse cx="-220.1" cy="51.5" class="st18" rx="12.1" ry="5"/>
    </g>
    <g>
      <path d="M-208 49.8c0 2.7-5.4 4.8-12.1 4.8-6.7 0-12.1-2.2-12.1-4.8V52c0 2.7 5.4 4.8 12.1 4.8 6.7 0 12.1-2.2 12.1-4.8v-2.2z" class="st17"/>
      <ellipse cx="-220.1" cy="49.9" fill="#ffb743" stroke="#ffc278" stroke-miterlimit="10" stroke-width=".085" rx="12.1" ry="5"/>
      <ellipse cx="-220.1" cy="49.7" fill="#f59d20" stroke="#ffc278" stroke-miterlimit="10" stroke-width=".087" rx="11.3" ry="4.6"/>
    </g>
  </g>
</svg>
