<svg xmlns="http://www.w3.org/2000/svg" xmlns:xlink="http://www.w3.org/1999/xlink" id="Layer_1" x="0" y="0" version="1.1" viewBox="0 0 124 107.9" xml:space="preserve">
  <defs/>
  <style>
    .st0{fill:#d67500;stroke:#ffc278;stroke-width:.1313;stroke-miterlimit:10}.st1,.st2{stroke:#ffc278;stroke-width:.1309}.st1{stroke-miterlimit:10;fill:#f59d20}.st2{fill:#ffb743}.st2,.st3,.st5,.st6{stroke-miterlimit:10}.st3{stroke-width:.134;fill:#f59d20;stroke:#ffc278}.st5,.st6{fill:none;stroke:#394349}.st6{fill:#f59d20;stroke:#383838}.st8{fill:#394349}.st9{fill:#fff;stroke:#394349;stroke-width:.856;stroke-miterlimit:10}
  </style>
  <path d="M363 63.2c0 5.1-6.7 9.2-15 9.2s-15-4.1-15-9.2v4.3c0 5.1 6.7 9.2 15 9.2s15-4.1 15-9.2v-4.3z" class="st0"/>
  <ellipse cx="348" cy="63.4" class="st1" rx="15" ry="9.5"/>
  <path d="M363 59.9c0 5.1-6.7 9.2-15 9.2s-15-4.1-15-9.2v4.3c0 5.1 6.7 9.2 15 9.2s15-4.1 15-9.2v-4.3z" class="st0"/>
  <ellipse cx="348" cy="60.4" class="st1" rx="15" ry="9.5"/>
  <path d="M363 56.6c0 5.1-6.7 9.2-15 9.2s-15-4.1-15-9.2v4.3c0 5.1 6.7 9.2 15 9.2s15-4.1 15-9.2v-4.3z" class="st0"/>
  <ellipse cx="348" cy="57.4" class="st1" rx="15" ry="9.5"/>
  <path d="M363 53.3c0 5.1-6.7 9.2-15 9.2s-15-4.1-15-9.2v4.3c0 5.1 6.7 9.2 15 9.2s15-4.1 15-9.2v-4.3z" class="st0"/>
  <ellipse cx="348" cy="53.4" class="st1" rx="15" ry="9.5"/>
  <path d="M363 50c0 5.1-6.7 9.2-15 9.2S333 55 333 50v4.3c0 5.1 6.7 9.2 15 9.2s15-4.1 15-9.2V50z" class="st0"/>
  <ellipse cx="348" cy="50.4" class="st1" rx="15" ry="9.5"/>
  <path d="M363 46.7c0 5.1-6.7 9.2-15 9.2s-15-4.1-15-9.2V51c0 5.1 6.7 9.2 15 9.2s15-4.1 15-9.2v-4.3z" class="st0"/>
  <ellipse cx="348" cy="47.4" class="st1" rx="15" ry="9.5"/>
  <path d="M363 43.3c0 5.1-6.7 9.2-15 9.2s-15-4.1-15-9.2v4.3c0 5.1 6.7 9.2 15 9.2s15-4.1 15-9.2v-4.3z" class="st0"/>
  <ellipse cx="348" cy="43.4" class="st1" rx="15" ry="9.5"/>
  <path d="M363 40c0 5.1-6.7 9.2-15 9.2s-15-4.1-15-9.2v4.3c0 5.1 6.7 9.2 15 9.2s15-4.1 15-9.2V40z" class="st0"/>
  <ellipse cx="348" cy="40.4" class="st1" rx="15" ry="9.5"/>
  <path d="M363 36.7c0 5.1-6.7 9.2-15 9.2s-15-4.1-15-9.2V41c0 5.1 6.7 9.2 15 9.2s15-4.1 15-9.2v-4.3z" class="st0"/>
  <ellipse cx="348" cy="37.4" class="st1" rx="15" ry="9.5"/>
  <g>
    <path d="M363 33.4c0 5.1-6.7 9.2-15 9.2s-15-4.1-15-9.2v4.3c0 5.1 6.7 9.2 15 9.2s15-4.1 15-9.2v-4.3z" class="st0"/>
    <ellipse cx="348" cy="33.4" class="st1" rx="15" ry="9.5"/>
  </g>
  <g>
    <path d="M363 30.1c0 5.1-6.7 9.2-15 9.2s-15-4.1-15-9.2v4.3c0 5.1 6.7 9.2 15 9.2s15-4.1 15-9.2v-4.3z" class="st0"/>
    <ellipse cx="348" cy="30.4" class="st1" rx="15" ry="9.5"/>
  </g>
  <g>
    <path d="M363 26.8c0 5.1-6.7 9.2-15 9.2s-15-4.1-15-9.2v4.3c0 5.1 6.7 9.2 15 9.2s15-4.1 15-9.2v-4.3z" class="st0"/>
    <ellipse cx="348" cy="27.4" class="st1" rx="15" ry="9.5"/>
  </g>
  <g>
    <path d="M363 23.5c0 5.1-6.7 9.2-15 9.2s-15-4.1-15-9.2v4.3c0 5.1 6.7 9.2 15 9.2s15-4.1 15-9.2v-4.3z" class="st0"/>
    <ellipse cx="348" cy="24.4" class="st1" rx="15" ry="9.5"/>
  </g>
  <g>
    <path d="M363 20.5c0 5.1-6.7 9.2-15 9.2s-15-4.1-15-9.2v4.3c0 5.1 6.7 9.2 15 9.2s15-4.1 15-9.2v-4.3z" class="st0"/>
    <ellipse cx="348" cy="21.4" class="st2" rx="15" ry="9.5"/>
    <ellipse cx="348" cy="21.1" class="st3" rx="14" ry="8.8"/>
  </g>
  <g>
    <path d="M390 74.9c0 5.1-6.7 9.2-15 9.2s-15-4.1-15-9.2v4.3c0 5.1 6.7 9.2 15 9.2s15-4.1 15-9.2v-4.3z" class="st0"/>
    <ellipse cx="375" cy="75.4" class="st1" rx="15" ry="9.5"/>
    <path d="M390 71.6c0 5.1-6.7 9.2-15 9.2s-15-4.1-15-9.2v4.3c0 5.1 6.7 9.2 15 9.2s15-4.1 15-9.2v-4.3z" class="st0"/>
    <ellipse cx="375" cy="72.4" class="st1" rx="15" ry="9.5"/>
    <path d="M390 68.3c0 5.1-6.7 9.2-15 9.2s-15-4.1-15-9.2v4.3c0 5.1 6.7 9.2 15 9.2s15-4.1 15-9.2v-4.3z" class="st0"/>
    <ellipse cx="375" cy="68.4" class="st1" rx="15" ry="9.5"/>
    <path d="M390 65c0 5.1-6.7 9.2-15 9.2S360 70 360 65v4.3c0 5.1 6.7 9.2 15 9.2s15-4.1 15-9.2V65z" class="st0"/>
    <ellipse cx="375" cy="65.4" class="st1" rx="15" ry="9.5"/>
    <path d="M390 61.7c0 5.1-6.7 9.2-15 9.2s-15-4.1-15-9.2V66c0 5.1 6.7 9.2 15 9.2s15-4.1 15-9.2v-4.3z" class="st0"/>
    <ellipse cx="375" cy="62.4" class="st1" rx="15" ry="9.5"/>
    <path d="M390 58.4c0 5.1-6.7 9.2-15 9.2s-15-4.1-15-9.2v4.3c0 5.1 6.7 9.2 15 9.2s15-4.1 15-9.2v-4.3z" class="st0"/>
    <ellipse cx="375" cy="58.4" class="st1" rx="15" ry="9.5"/>
    <path d="M390 55.1c0 5.1-6.7 9.2-15 9.2s-15-4.1-15-9.2v4.3c0 5.1 6.7 9.2 15 9.2s15-4.1 15-9.2v-4.3z" class="st0"/>
    <ellipse cx="375" cy="55.4" class="st1" rx="15" ry="9.5"/>
    <g>
      <path d="M390 51.7c0 5.1-6.7 9.2-15 9.2s-15-4.1-15-9.2V56c0 5.1 6.7 9.2 15 9.2s15-4.1 15-9.2v-4.3z" class="st0"/>
      <ellipse cx="375" cy="52.4" class="st1" rx="15" ry="9.5"/>
    </g>
    <g>
      <path d="M390 48.4c0 5.1-6.7 9.2-15 9.2s-15-4.1-15-9.2v4.3c0 5.1 6.7 9.2 15 9.2s15-4.1 15-9.2v-4.3z" class="st0"/>
      <ellipse cx="375" cy="48.4" class="st1" rx="15" ry="9.5"/>
    </g>
    <g>
      <path d="M390 45.1c0 5.1-6.7 9.2-15 9.2s-15-4.1-15-9.2v4.3c0 5.1 6.7 9.2 15 9.2s15-4.1 15-9.2v-4.3z" class="st0"/>
      <ellipse cx="375" cy="45.4" class="st1" rx="15" ry="9.5"/>
    </g>
    <g>
      <path d="M390 41.8c0 5.1-6.7 9.2-15 9.2s-15-4.1-15-9.2v4.3c0 5.1 6.7 9.2 15 9.2s15-4.1 15-9.2v-4.3z" class="st0"/>
      <ellipse cx="375" cy="42.4" class="st1" rx="15" ry="9.5"/>
    </g>
    <g>
      <path d="M390 38.5c0 5.1-6.7 9.2-15 9.2s-15-4.1-15-9.2v4.3c0 5.1 6.7 9.2 15 9.2s15-4.1 15-9.2v-4.3z" class="st0"/>
      <ellipse cx="375" cy="39.4" class="st1" rx="15" ry="9.5"/>
    </g>
    <g>
      <path d="M390 35.2c0 5.1-6.7 9.2-15 9.2s-15-4.1-15-9.2v4.3c0 5.1 6.7 9.2 15 9.2s15-4.1 15-9.2v-4.3z" class="st0"/>
      <ellipse cx="375" cy="35.4" class="st1" rx="15" ry="9.5"/>
    </g>
    <g>
      <path d="M390 32.2c0 5.1-6.7 9.2-15 9.2s-15-4.1-15-9.2v4.3c0 5.1 6.7 9.2 15 9.2s15-4.1 15-9.2v-4.3z" class="st0"/>
      <ellipse cx="375" cy="32.4" class="st2" rx="15" ry="9.5"/>
      <ellipse cx="375" cy="32.1" class="st3" rx="14" ry="8.8"/>
    </g>
  </g>
  <g>
    <path d="M362 81c0 5.1-6.7 9.2-15 9.2s-15-4.1-15-9.2v4.3c0 5.1 6.7 9.2 15 9.2s15-4.1 15-9.2V81z" class="st0"/>
    <ellipse cx="347" cy="81.4" class="st2" rx="15" ry="9.5"/>
    <ellipse cx="347.5" cy="81.4" fill="#f59d20" stroke="#ffc278" stroke-miterlimit="10" stroke-width=".129" rx="13.5" ry="8.5"/>
  </g>
  <g>
    <path d="M332 75.7c0 5.1-6.7 9.2-15 9.2s-15-4.1-15-9.2V80c0 5.1 6.7 9.2 15 9.2s15-4.1 15-9.2v-4.3z" class="st0"/>
    <ellipse cx="317" cy="76.4" class="st1" rx="15" ry="9.5"/>
  </g>
  <g>
    <path d="M338 71.8c0 5.1-6.7 9.2-15 9.2s-15-4.1-15-9.2v4.3c0 5.1 6.7 9.2 15 9.2s15-4.1 15-9.2v-4.3z" class="st0"/>
    <ellipse cx="323" cy="72.4" class="st1" rx="15" ry="9.5"/>
  </g>
  <g>
    <path d="M336 68.5c0 5.1-6.7 9.2-15 9.2s-15-4.1-15-9.2v4.3c0 5.1 6.7 9.2 15 9.2s15-4.1 15-9.2v-4.3z" class="st0"/>
    <ellipse cx="321" cy="69.4" class="st1" rx="15" ry="9.5"/>
  </g>
  <g>
    <path d="M329 65.1c0 5.1-6.7 9.2-15 9.2s-15-4.1-15-9.2v4.3c0 5.1 6.7 9.2 15 9.2s15-4.1 15-9.2v-4.3z" class="st0"/>
    <ellipse cx="314" cy="65.4" class="st1" rx="15" ry="9.5"/>
  </g>
  <g>
    <path d="M333 61.1c0 5.1-6.7 9.2-15 9.2s-15-4.1-15-9.2v4.3c0 5.1 6.7 9.2 15 9.2s15-4.1 15-9.2v-4.3z" class="st0"/>
    <ellipse cx="318" cy="61.4" class="st1" rx="15" ry="9.5"/>
  </g>
  <g>
    <path d="M333 57.8c0 5.1-6.7 9.2-15 9.2s-15-4.1-15-9.2v4.3c0 5.1 6.7 9.2 15 9.2s15-4.1 15-9.2v-4.3z" class="st0"/>
    <ellipse cx="318" cy="58.4" class="st1" rx="15" ry="9.5"/>
  </g>
  <g>
    <path d="M333 54.6c0 5.1-6.7 9.2-15 9.2s-15-4.1-15-9.2v4.3c0 5.1 6.7 9.2 15 9.2s15-4.1 15-9.2v-4.3z" class="st0"/>
    <ellipse cx="318" cy="55.4" class="st1" rx="15" ry="9.5"/>
  </g>
  <g>
    <path d="M333 51.3c0 5.1-6.7 9.2-15 9.2s-15-4.1-15-9.2v4.3c0 5.1 6.7 9.2 15 9.2s15-4.1 15-9.2v-4.3z" class="st0"/>
    <ellipse cx="318" cy="51.4" class="st1" rx="15" ry="9.5"/>
  </g>
  <g>
    <path d="M336 48c0 5.1-6.7 9.2-15 9.2s-15-4.1-15-9.2v4.3c0 5.1 6.7 9.2 15 9.2s15-4.1 15-9.2V48z" class="st0"/>
    <ellipse cx="321" cy="48.4" class="st2" rx="15" ry="9.5"/>
    <ellipse cx="321" cy="48.1" class="st3" rx="14" ry="8.8"/>
  </g>
  <path d="M22.3 40.6h79.3c2.4 0 3.2-3.1 1.2-4.4L63.2 14.7c-.7-.4-1.7-.4-2.4 0L21.2 36.2c-2.1 1.2-1.2 4.4 1.1 4.4z" class="st5"/>
  <path d="M29.6 80.5c-.9 0-1.6.7-1.6 1.6 0 .9.7 1.6 1.6 1.6h10.8c.9 0 1.6-.7 1.6-1.6 0-.9-.7-1.6-1.6-1.6h-1.6V43.8h1.6c.9 0 1.6-.7 1.6-1.6s-.7-1.6-1.6-1.6H29.6c-.9 0-1.6.7-1.6 1.6s.7 1.6 1.6 1.6h1.6v36.7h-1.6zM56.6 80.5c-.9 0-1.6.7-1.6 1.6 0 .9.7 1.6 1.6 1.6h10.8c.9 0 1.6-.7 1.6-1.6 0-.9-.7-1.6-1.6-1.6h-1.6V43.8h1.6c.9 0 1.6-.7 1.6-1.6s-.7-1.6-1.6-1.6H56.6c-.9 0-1.6.7-1.6 1.6s.7 1.6 1.6 1.6h1.6v36.7h-1.6zM83.6 80.5c-.9 0-1.6.7-1.6 1.6 0 .9.7 1.6 1.6 1.6h10.7c.9 0 1.6-.7 1.6-1.6 0-.9-.7-1.6-1.6-1.6h-1.6V43.8h1.6c.9 0 1.6-.7 1.6-1.6s-.7-1.6-1.6-1.6H83.6c-.9 0-1.6.7-1.6 1.6s.7 1.6 1.6 1.6h1.6v36.7h-1.6zM20.4 83.8h82v6.5h-82z" class="st5"/>
  <g>
    <path d="M168.5 27.4h75v12h-75z" class="st6"/>
    <path d="M168.5 39.4h75v48h-75z" class="st5"/>
    <path fill="none" stroke="#394349" stroke-miterlimit="10" stroke-width="2" d="M189.5 61.4L202 73.9l21.5-24.5"/>
    <path d="M177 22.9h2v11h-2zM233 22.9h2v11h-2z" class="st8"/>
  </g>
  <g>
    <path d="M-211.5 84.4c0 5.1-6.7 9.2-15 9.2s-15-4.1-15-9.2v4.3c0 5.1 6.7 9.2 15 9.2s15-4.1 15-9.2v-4.3z" class="st0"/>
    <ellipse cx="-226.5" cy="85.2" class="st1" rx="15" ry="9.5"/>
  </g>
  <g>
    <path d="M-205.5 80.6c0 5.1-6.7 9.2-15 9.2s-15-4.1-15-9.2v4.3c0 5.1 6.7 9.2 15 9.2s15-4.1 15-9.2v-4.3z" class="st0"/>
    <ellipse cx="-220.5" cy="81.2" class="st1" rx="15" ry="9.5"/>
  </g>
  <g>
    <path d="M-207.5 77.3c0 5.1-6.7 9.2-15 9.2s-15-4.1-15-9.2v4.3c0 5.1 6.7 9.2 15 9.2s15-4.1 15-9.2v-4.3z" class="st0"/>
    <ellipse cx="-222.5" cy="78.2" class="st1" rx="15" ry="9.5"/>
  </g>
  <g>
    <path d="M-214.5 73.9c0 5.1-6.7 9.2-15 9.2s-15-4.1-15-9.2v4.3c0 5.1 6.7 9.2 15 9.2s15-4.1 15-9.2v-4.3z" class="st0"/>
    <ellipse cx="-229.5" cy="74.2" class="st1" rx="15" ry="9.5"/>
  </g>
  <g>
    <path d="M-210.5 69.8c0 5.1-6.7 9.2-15 9.2s-15-4.1-15-9.2v4.3c0 5.1 6.7 9.2 15 9.2s15-4.1 15-9.2v-4.3z" class="st0"/>
    <ellipse cx="-225.5" cy="70.2" class="st1" rx="15" ry="9.5"/>
  </g>
  <g>
    <path d="M-210.5 66.6c0 5.1-6.7 9.2-15 9.2s-15-4.1-15-9.2v4.3c0 5.1 6.7 9.2 15 9.2s15-4.1 15-9.2v-4.3z" class="st0"/>
    <ellipse cx="-225.5" cy="67.2" class="st1" rx="15" ry="9.5"/>
  </g>
  <g>
    <path d="M-210.5 63.3c0 5.1-6.7 9.2-15 9.2s-15-4.1-15-9.2v4.3c0 5.1 6.7 9.2 15 9.2s15-4.1 15-9.2v-4.3z" class="st0"/>
    <ellipse cx="-225.5" cy="64.2" class="st1" rx="15" ry="9.5"/>
  </g>
  <g>
    <path d="M-210.5 60c0 5.1-6.7 9.2-15 9.2s-15-4.1-15-9.2v4.3c0 5.1 6.7 9.2 15 9.2s15-4.1 15-9.2V60z" class="st0"/>
    <ellipse cx="-225.5" cy="60.2" class="st1" rx="15" ry="9.5"/>
  </g>
  <g>
    <path d="M-207.5 56.7c0 5.1-6.7 9.2-15 9.2s-15-4.1-15-9.2V61c0 5.1 6.7 9.2 15 9.2s15-4.1 15-9.2v-4.3z" class="st0"/>
    <ellipse cx="-222.5" cy="57.2" class="st2" rx="15" ry="9.5"/>
    <ellipse cx="-222.5" cy="56.9" class="st3" rx="14" ry="8.8"/>
  </g>
  <g>
    <g id="XMLID_75_">
      <path d="M-295.5 46.2c16.4.2 22.8-19.2 24.1-20.5 2.7-2.7 7-7 8.4-8.2 1.6-1.3 12.9-4.5 14.7-5.6 2.5-1.5 3.3-3.3 3.7-4.5.4-1.4-.6-2.9-1.9-2.7l-19.2 5.2c-.6.1-1.2.3-1.8.6-2.9 1.6-6.4 4.1-9.3 6.1-4.5 3.1-6.7 7.2-12.1 10.5" class="st9"/>
      <path id="XMLID_77_" d="M-269.6 23.2c5.7-2 8.2-3 9.4-3 3.2-.1 6-.3 8.8-.2 2 .1 3.9.4 5 2 1.1 1.7 2.7 3.9 4.2 5.4 1.3 1.3 4.1 2.2 5.3 2.2 1.5 0 2.6-1.4 2.1-2.6l-7.2-12.4c-.6-1.1-1.7-1.9-3-2.1-2.8-.4-7.7-1.4-11.2-1.9-1.7-.2-3.3-.1-4.9.5l-22.2 12.1" class="st9"/>
      <path d="M-312.8 57.7c-.9-1.3-.9-3 0-4.3l2.6-3.8c6.1-8 13-16.2 21.1-22.5 17.2-13.4 29.7-10.7 29.7-10.7s10.4 3.7 12.5 4.6c2.7 1.1 8.2 3.8 8.1 14l-.4 4.7c-.5 1.8-4.8 2.8-6.4-2.4-1.4-4.5-.7-7-2.4-7.9-1.9-1-6.6-3.1-8.5-2.2-3.3 1.5-6.3 3.2-7.2 4-5.4 4.3-6.3 6.9-4.5 8.6.8.8 2 1 3.1.7 7.9-2 10.6-.9 15.1 2.3 3.6 2.5 6.1 4.7 5.3 6.7-1.8 4.1-5.1 1.3-11.7.7-7.6-.7-18.3 11-29.7 10.7-2.6-.1-4 2.3-4.7 4.1-.5 1.2-1.6 1.9-2.9 1.9-2.8-.2-7.6-.7-10.7-2.4-4.1-2.1-6.8-4.6-8.4-6.8z" class="st9"/>
    </g>
    <defs>
      <path id="SVGID_1_" d="M-231 43.6c.1.6-6.9 12.9-6.9 12.9l-27.8-15s14.6-12.4 16.9-11.2c2 1.1 1 1.5 2.2 6.6 1.8 7.3 8 5.5 8.2 2.9l.3-3.7c.1-12 7 6.9 7.1 7.5z"/>
    </defs>
    <clipPath id="SVGID_2_">
      <use overflow="visible" xlink:href="#SVGID_1_"/>
    </clipPath>
    <g stroke="#ffc278" stroke-miterlimit="10" stroke-width=".624" clip-path="url(#SVGID_2_)">
      <path fill="#d67500" d="M-254.3 34.5c-2 3.5 1 9 6.8 12.3 5.7 3.3 12 3.1 14-.5.1-.2-1.7 2.9-1.7 2.9-2 3.5-8.3 3.7-14 .5s-8.8-8.8-6.8-12.3c0 0 1.8-3.1 1.7-2.9z"/>
      <ellipse cx="-244.1" cy="40.7" fill="#ffb743" rx="7.7" ry="11.9" transform="rotate(-60.39 -244.093 40.696)"/>
      <ellipse cx="-244" cy="40.6" fill="#f59d20" rx="7" ry="10.9" transform="rotate(-60.39 -244.03 40.586)"/>
    </g>
  </g>
  <circle cx="62.5" cy="29.4" r="5" class="st6"/>
</svg>
