<svg xmlns="http://www.w3.org/2000/svg" width="368" height="212" viewBox="0 0 368 212">
  <g fill="none">
    <rect width="368" height="212" fill="#DFE5E9" id="bg"/>
    <circle cx="183.5" cy="105.5" r="88.5" fill="#F3F6F7"/>
    <path fill="#07C39F" d="M170 39L196 39C197.656854 39 199 40.3431458 199 42L199 53C199 54.6568542 197.656854 56 196 56L170 56C168.343146 56 167 54.6568542 167 53L167 42C167 40.3431458 168.343146 39 170 39zM132 144C131.447715 144 131 144.447715 131 145L131 156C131 156.552285 131.447715 157 132 157L158 157C158.552285 157 159 156.552285 159 156L159 145C159 144.447715 158.552285 144 158 144L132 144zM132 142L158 142C159.656854 142 161 143.343146 161 145L161 156C161 157.656854 159.656854 159 158 159L132 159C130.343146 159 129 157.656854 129 156L129 145C129 143.343146 130.343146 142 132 142z"/>
    <rect width="30" height="15" x="207" y="143" fill="#07C39F" rx="2"/>
    <path fill="#07C39F" d="M209,70 L235,70 C236.656854,70 238,71.3431458 238,73 L238,84 C238,85.6568542 236.656854,87 235,87 L209,87 C207.343146,87 206,85.6568542 206,84 L206,73 C206,71.3431458 207.343146,70 209,70 Z"/>
    <path fill="#FFF" d="M209,72 C208.447715,72 208,72.4477153 208,73 L208,84 C208,84.5522847 208.447715,85 209,85 L235,85 C235.552285,85 236,84.5522847 236,84 L236,73 C236,72.4477153 235.552285,72 235,72 L209,72 Z"/>
    <path fill="#07C39F" d="M208 74.2928932L210.292893 72 211.707107 72 208 75.7071068 208 74.2928932zM208 80.2928932L216.292893 72 217.707107 72 208 81.7071068 208 80.2928932zM209.292893 85L222.292893 72 223.707107 72 210.707107 85 209.292893 85zM215.292893 85L228.292893 72 229.707107 72 216.707107 85 215.292893 85zM221.292893 85L234.292893 72 235 72C235.201217 72 235.388553 72.0594297 235.545413 72.1616938L222.707107 85 221.292893 85zM227.292893 85L236 76.2928932 236 77.7071068 228.707107 85 227.292893 85zM233.292893 85L236 82.2928932 236 83.7071068 234.707107 85 233.292893 85zM146 93C138.268014 93 132 86.7319865 132 79 132 71.2680135 138.268014 65 146 65 153.731986 65 160 71.2680135 160 79 160 86.7319865 153.731986 93 146 93zM146 91C152.627417 91 158 85.627417 158 79 158 72.372583 152.627417 67 146 67 139.372583 67 134 72.372583 134 79 134 85.627417 139.372583 91 146 91z"/>
    <path fill="#07C39F" d="M146,88.5 C140.753295,88.5 136.5,84.2467051 136.5,79 C136.5,73.7532949 140.753295,69.5 146,69.5 C151.246705,69.5 155.5,73.7532949 155.5,79 C155.5,84.2467051 151.246705,88.5 146,88.5 Z M146,85.5 C149.589851,85.5 152.5,82.5898509 152.5,79 C152.5,75.4101491 149.589851,72.5 146,72.5 C142.410149,72.5 139.5,75.4101491 139.5,79 C139.5,82.5898509 142.410149,85.5 146,85.5 Z"/>
    <path fill="#07C39F" d="M194.10246,98.3925084 C195.734618,98.107505 197.288784,99.1995895 197.573787,100.831747 C197.63341,101.173194 197.63341,101.52239 197.573787,101.863836 L194.115998,121.665906 C193.898767,122.909947 192.92572,123.884744 191.682071,124.104212 L171.835444,127.606558 C170.203802,127.894495 168.647675,126.805206 168.359738,125.173563 C168.298872,124.828657 168.298872,124.475757 168.359738,124.130851 L171.862084,104.284224 C172.081551,103.040575 173.056348,102.067529 174.30039,101.850297 L194.10246,98.3925084 Z" transform="rotate(45 182.966 113)"/>
    <path fill="#07C39F" d="M182,60 L184,60 L184,68 L182,68 L182,60 Z M182,74 L184,74 L184,82 L182,82 L182,74 Z M182,88 L184,88 L184,96 L182,96 L182,88 Z M182,102 L184,102 L184,105 L182,105 L182,102 Z"/>
    <path fill="#07C39F" d="M182,60 L184,60 L184,68 L182,68 L182,60 Z M182,74 L184,74 L184,82 L182,82 L182,74 Z M182,88 L184,88 L184,96 L182,96 L182,88 Z" transform="rotate(90 183 78)"/>
    <path fill="#07C39F" d="M221 89L223 89 223 97 221 97 221 89zM221 103L223 103 223 111 221 111 221 103zM221 117L223 117 223 125 221 125 221 117zM221 131L223 131 223 139 221 139 221 131zM221 145L223 145 223 148 221 148 221 145zM145 95L147 95 147 103 145 103 145 95zM145 109L147 109 147 111C147 111.552285 147.447715 112 148 112L150.938533 112 150.938533 114 148 114C146.343146 114 145 112.656854 145 111L145 109zM156.938533 114L156.938533 112 160.891667 112 160.891667 114 156.938533 114z"/>
    <path fill="#07C39F" d="M145,47 L147,47 L147,55 L145,55 L145,47 Z M145,61 L147,61 L147,63 C147,63.5522847 147.447715,64 148,64 L150.938533,64 L150.938533,66 L148,66 C146.343146,66 145,64.6568542 145,63 L145,61 Z M156.938533,66 L156.938533,64 L164.938533,64 L164.938533,66 L156.938533,66 Z" transform="matrix(1 0 0 -1 0 113)"/>
    <path fill="#07C39F" d="M182,133 L184,133 L184,141 L182,141 L182,133 Z M182,147 L184,147 L184,149 C184,149.552285 184.447715,150 185,150 L187.938533,150 L187.938533,152 L185,152 C183.343146,152 182,150.656854 182,149 L182,147 Z M193.938533,152 L193.938533,150 L201.938533,150 L201.938533,152 L193.938533,152 Z"/>
    <path fill="#07C39F" d="M164,133 L166,133 L166,141 L164,141 L164,133 Z M164,147 L166,147 L166,149 C166,149.552285 166.447715,150 167,150 L169.938533,150 L169.938533,152 L167,152 C165.343146,152 164,150.656854 164,149 L164,147 Z M175.938533,152 L175.938533,150 L183.938533,150 L183.938533,152 L175.938533,152 Z" transform="matrix(-1 0 0 1 347.939 0)"/>
    <path fill="#07C39F" d="M205,108 L207,108 L207,111 C207,111.552285 207.447715,112 208,112 L209.938533,112 L209.938533,114 L208,114 C206.343146,114 205,112.656854 205,111 L205,108 Z M215.938533,114 L215.938533,112 L223,112 L223,114 L215.938533,114 Z" transform="matrix(-1 0 0 1 428 0)"/>
    <circle cx="174" cy="113" r="2" fill="#FFF"/>
    <circle cx="138" cy="150" r="2" fill="#07C39F"/>
    <circle cx="176" cy="48" r="2" fill="#FFF"/>
    <circle cx="183" cy="113" r="2" fill="#FFF"/>
    <circle cx="145" cy="150" r="2" fill="#07C39F"/>
    <circle cx="183" cy="48" r="2" fill="#FFF"/>
    <circle cx="192" cy="113" r="2" fill="#FFF"/>
    <circle cx="152" cy="150" r="2" fill="#07C39F"/>
    <circle cx="190" cy="48" r="2" fill="#FFF"/>
    <path fill="#FFF" d="M219.585507,145.947754 L224.616852,145.069245 C225.704959,144.879253 226.741062,145.60732 226.931054,146.695427 C226.9708,146.923058 226.970797,147.155856 226.931047,147.383486 L226.052526,152.4143 C225.907697,153.24366 225.258993,153.893518 224.429892,154.039821 L219.387227,154.929651 C218.299463,155.121598 217.262052,154.395395 217.070105,153.307631 C217.02953,153.077693 217.029533,152.842426 217.070112,152.61249 L217.959953,147.570355 C218.106273,146.741257 218.756145,146.092566 219.585507,145.947754 Z" transform="rotate(45 222 150)"/>
    <circle cx="219" cy="150" r="1" fill="#07C39F"/>
    <circle cx="222" cy="150" r="1" fill="#07C39F"/>
    <circle cx="225" cy="150" r="1" fill="#07C39F"/>
  </g>
</svg>
