<svg xmlns="http://www.w3.org/2000/svg" width="368" height="212" viewBox="0 0 368 212">
  <g fill="none" fill-rule="evenodd">
    <rect width="368" height="212" id="bg" fill="#DFE5E9" fill-rule="nonzero"/>
    <g transform="translate(95 17)">
      <circle cx="88.5" cy="88.5" r="88.5" fill="#F3F6F7" fill-rule="nonzero"/>
      <g fill-rule="nonzero" transform="translate(34 22)">
        <path fill="#07C39F" d="M41 0L67 0C68.6568542-2.22044605e-16 70 1.34314575 70 3L70 14C70 15.6568542 68.6568542 17 67 17L41 17C39.3431458 17 38 15.6568542 38 14L38 3C38 1.34314575 39.3431458 3.33066907e-16 41 0zM3 105C2.44771525 105 2 105.447715 2 106L2 117C2 117.552285 2.44771525 118 3 118L29 118C29.5522847 118 30 117.552285 30 117L30 106C30 105.447715 29.5522847 105 29 105L3 105zM3 103L29 103C30.6568542 103 32 104.343146 32 106L32 117C32 118.656854 30.6568542 120 29 120L3 120C1.34314575 120 2.22044605e-16 118.656854 0 117L0 106C-2.22044605e-16 104.343146 1.34314575 103 3 103zM80 103L106 103C107.656854 103 109 104.343146 109 106L109 117C109 118.656854 107.656854 120 106 120L80 120C78.3431458 120 77 118.656854 77 117L77 106C77 104.343146 78.3431458 103 80 103zM80 33C79.4477153 33 79 33.4477153 79 34L79 45C79 45.5522847 79.4477153 46 80 46L106 46C106.552285 46 107 45.5522847 107 45L107 34C107 33.4477153 106.552285 33 106 33L80 33zM80 31L106 31C107.656854 31 109 32.3431458 109 34L109 45C109 46.6568542 107.656854 48 106 48L80 48C78.3431458 48 77 46.6568542 77 45L77 34C77 32.3431458 78.3431458 31 80 31zM17 54C9.2680135 54 3 47.7319865 3 40 3 32.2680135 9.2680135 26 17 26 24.7319865 26 31 32.2680135 31 40 31 47.7319865 24.7319865 54 17 54zM17 52C23.627417 52 29 46.627417 29 40 29 33.372583 23.627417 28 17 28 10.372583 28 5 33.372583 5 40 5 46.627417 10.372583 52 17 52z"/>
        <path fill="#07C39F" d="M17,49 C12.0294373,49 8,44.9705627 8,40 C8,35.0294373 12.0294373,31 17,31 C21.9705627,31 26,35.0294373 26,40 C26,44.9705627 21.9705627,49 17,49 Z"/>
        <path fill="#07C39F" d="M65.1024597,59.3925084 C66.7346175,59.107505 68.2887838,60.1995895 68.5737871,61.8317473 C68.6334097,62.1731935 68.6334097,62.5223895 68.5737871,62.8638358 L65.1159983,82.6659056 C64.8987668,83.9099473 63.9257204,84.8847445 62.6820712,85.104212 L42.8354443,88.6065579 C41.2038015,88.8944949 39.6476746,87.8052061 39.3597377,86.1735632 C39.2988719,85.8286572 39.2988719,85.4757572 39.3597377,85.1308512 L42.8620836,65.2842244 C43.0815511,64.0405752 44.0563483,63.0675287 45.30039,62.8502972 L65.1024597,59.3925084 Z" transform="rotate(45 53.966 74)"/>
        <path fill="#07C39F" d="M53 21L55 21 55 29 53 29 53 21zM53 35L55 35 55 43 53 43 53 35zM53 49L55 49 55 57 53 57 53 49zM53 63L55 63 55 66 53 66 53 63zM92 50L94 50 94 58 92 58 92 50zM92 64L94 64 94 72 92 72 92 64zM92 78L94 78 94 86 92 86 92 78zM92 92L94 92 94 100 92 100 92 92zM92 106L94 106 94 109 92 109 92 106zM16 56L18 56 18 64 16 64 16 56zM16 70L18 70 18 72C18 72.5522847 18.4477153 73 19 73L21.9385325 73 21.9385325 75 19 75C17.3431458 75 16 73.6568542 16 72L16 70zM27.9385325 75L27.9385325 73 31.8916667 73 31.8916667 75 27.9385325 75zM53 94L55 94 55 102 53 102 53 94zM53 108L55 108 55 110C55 110.552285 55.4477153 111 56 111L58.9385325 111 58.9385325 113 56 113C54.3431458 113 53 111.656854 53 110L53 108zM64.9385325 113L64.9385325 111 72.9385325 111 72.9385325 113 64.9385325 113z"/>
        <path fill="#07C39F" d="M35,94 L37,94 L37,102 L35,102 L35,94 Z M35,108 L37,108 L37,110 C37,110.552285 37.4477153,111 38,111 L40.9385325,111 L40.9385325,113 L38,113 C36.3431458,113 35,111.656854 35,110 L35,108 Z M46.9385325,113 L46.9385325,111 L54.9385325,111 L54.9385325,113 L46.9385325,113 Z" transform="matrix(-1 0 0 1 89.939 0)"/>
        <circle cx="45" cy="74" r="2" fill="#FFF"/>
        <circle cx="54" cy="74" r="2" fill="#FFF"/>
        <circle cx="63" cy="74" r="2" fill="#FFF"/>
      </g>
    </g>
  </g>
</svg>
