<svg xmlns="http://www.w3.org/2000/svg" xmlns:xlink="http://www.w3.org/1999/xlink" width="368" height="212" viewBox="0 0 368 212">
  <defs>
    <polygon id="python-a" points=".001 .27 85.76 .27 85.76 86.925 .001 86.925"/>
  </defs>
  <g fill="none" fill-rule="evenodd">
    <rect width="368" height="212" fill="#DFE5E9" fill-rule="nonzero" id="bg"/>
    <g transform="translate(95 17)">
      <circle cx="88.5" cy="88.5" r="88.5" fill="#F3F6F7" fill-rule="nonzero"/>
      <g transform="translate(32 31)">
        <mask id="python-b" fill="#fff">
          <use xlink:href="#python-a"/>
        </mask>
        <path fill="#33B99B" d="M42.1223291,8.84193358 C45.0084051,8.84193358 47.3638481,11.2395251 47.3638481,14.1863535 C47.3638481,17.1230484 45.0084051,19.4983461 42.1223291,19.4983461 C39.2261266,19.4983461 36.8787848,17.1230484 36.8787848,14.1863535 C36.8787848,11.2395251 39.2261266,8.84193358 42.1223291,8.84193358 M57.2332152,0.271000057 C52.4554937,0.293293807 47.894481,0.70066142 43.8803038,1.41000801 C32.0565063,3.5015671 29.9096709,7.87722222 29.9096709,15.945533 L29.9096709,26.6019455 L57.8509367,26.6019455 L57.8509367,30.1547586 L29.9096709,30.1547586 L19.4225823,30.1547586 C11.3030886,30.1547586 4.19220253,35.0391165 1.96637975,44.3315569 C-0.597670886,54.9818893 -0.711088608,61.6274535 1.96637975,72.7479813 C3.95321519,81.0270694 8.69853165,86.9247796 16.8180253,86.9247796 L26.4261266,86.9247796 L26.4261266,74.1504609 C26.4261266,64.9208484 34.4038481,56.7795762 43.8803038,56.7795762 L71.7891646,56.7795762 C79.5582785,56.7795762 85.7597975,50.3792432 85.7597975,42.5703506 L85.7597975,15.945533 C85.7597975,8.36971142 79.3739747,2.67669835 71.7891646,1.41000801 C66.9911899,0.61148642 62.0089114,0.248706307 57.2332152,0.271000057" mask="url(#python-b)"/>
        <path fill="#FEFEFE" d="M88.3802669,29 L88.3802669,41.3701435 C88.3802669,50.96175 80.2181911,59.0348538 70.9109519,59.0348538 L42.9811271,59.0348538 C35.3298144,59.0348538 29,65.5571462 29,73.192065 L29,99.7174004 C29,107.267509 35.5892497,111.709937 42.9811271,113.874612 C51.8323278,116.469394 60.3207244,116.937868 70.9109519,113.874612 C77.9501596,111.84321 84.892079,107.756176 84.892079,99.7174004 L84.892079,89.1020161 L56.9622542,89.1020161 L56.9622542,85.5622084 L84.892079,85.5622084 L98.875233,85.5622084 C107.002853,85.5622084 110.030948,79.9142667 112.85636,71.4373058 C115.777033,62.7099535 115.651369,54.3198219 112.85636,43.1249026 C110.847764,35.0639146 107.01096,29 98.875233,29 L88.3802669,29 Z"/>
        <path stroke="#33B99B" stroke-width="2" d="M89.3802669,30 L89.3802669,41.3701435 C89.3802669,51.4516786 80.8325822,60.0348538 70.9109519,60.0348538 L42.9811271,60.0348538 C35.9242814,60.0348538 30,66.0666371 30,73.192065 L30,99.7174004 C30,105.969372 35.0082319,110.497792 43.2624439,112.914997 C52.5755828,115.645199 60.823988,115.751304 70.6336828,112.913819 C78.9796382,110.505312 83.892079,106.221816 83.892079,99.7174004 L83.892079,90.1020161 L55.9622542,90.1020161 L55.9622542,84.5622084 L98.875233,84.5622084 C105.535899,84.5622084 108.624322,80.9719843 111.908054,71.1199482 C114.715011,62.7323939 114.687119,54.5859589 111.88603,43.3666847 C109.677883,34.5048526 105.702061,30 98.875233,30 L89.3802669,30 Z"/>
        <path fill="#33B99B" d="M73.5,96 C76.5378525,96 79,98.4518828 79,101.483264 C79,104.525105 76.5378525,107 73.5,107 C70.4727694,107 68,104.525105 68,101.483264 C68,98.4518828 70.4727694,96 73.5,96"/>
      </g>
    </g>
  </g>
</svg>
