<?xml version="1.0" encoding="UTF-8"?>
<svg width="30px" height="30px" viewBox="0 0 30 30" version="1.1" xmlns="http://www.w3.org/2000/svg" xmlns:xlink="http://www.w3.org/1999/xlink">
    <!-- Generator: Sketch 50.2 (55047) - http://www.bohemiancoding.com/sketch -->
    <title>icons/cross</title>
    <desc>Created with Sketch.</desc>
    <defs></defs>
    <g id="icons/cross" stroke="none" stroke-width="1" fill="none" fill-rule="evenodd">
        <path d="M16,14 L23,14 C23.5522847,14 24,14.4477153 24,15 C24,15.5522847 23.5522847,16 23,16 L16,16 L16,23 C16,23.5522847 15.5522847,24 15,24 C14.4477153,24 14,23.5522847 14,23 L14,16 L7,16 C6.44771525,16 6,15.5522847 6,15 C6,14.4477153 6.44771525,14 7,14 L14,14 L14,7 C14,6.44771525 14.4477153,6 15,6 C15.5522847,6 16,6.44771525 16,7 L16,14 Z" id="cross" fill="#8B9CA7" transform="translate(15.000000, 15.000000) rotate(45.000000) translate(-15.000000, -15.000000) "></path>
    </g>
</svg>