<svg xmlns="http://www.w3.org/2000/svg" width="11" height="16" viewBox="0 0 11 16">
  <path fill-rule="evenodd" d="M6.3385988,15.5404901 C9.4461996,10.7567166 11,7.42513358 11,5.54574094 C11,2.48290763 8.53792462,0 5.5,0 C2.46271522,0 0,2.48290763 0,5.54574094 C0,7.42513154 1.55379702,10.7567094 4.66139107,15.5404745 L4.6613673,15.5404899 C4.96223844,16.0036446 5.58160377,16.1352015 6.04475849,15.8343303 C6.1621997,15.758039 6.26230748,15.6579313 6.3385988,15.5404901 Z M1.95219558,5.23703506 C1.95219558,3.27738389 3.52816345,1.68911323 5.47064976,1.68911323 L5.47064976,1.68911323 C7.41436393,1.68911323 8.98910394,3.27738389 8.98910394,5.23703506 L8.98910394,5.23703506 C8.98910394,7.19544829 7.41436393,8.78371895 5.47064976,8.78371895 L5.47064976,8.78371895 C3.52816345,8.78371895 1.95219558,7.19544829 1.95219558,5.23703506 L1.95219558,5.23703506 Z M3.9637461,5.19816779 C3.9637461,6.03748774 4.63942401,6.71817517 5.47139192,6.71817517 L5.47139192,6.71817517 C6.30441228,6.71817517 6.97956396,6.03748774 6.97956396,5.19816779 L6.97956396,5.19816779 C6.97956396,4.35831729 6.30441228,3.67762986 5.47139192,3.67762986 L5.47139192,3.67762986 C4.63942401,3.67762986 3.9637461,4.35831729 3.9637461,5.19816779 L3.9637461,5.19816779 Z"/>
</svg>
