<svg xmlns="http://www.w3.org/2000/svg" width="24" height="24" viewBox="0 0 24 24">
  <path d="M15.1547694,12.5456077 C14.4597653,12.7614471 13.7412064,12.9005562 13,12.9622682 L13,15.0000009 C13,15.5522857 12.5522847,16.0000009 12,16.0000009 C11.4477153,16.0000009 11,15.5522857 11,15.0000009 L11,12.9431753 C10.2722814,12.8686087 9.56191718,12.719621 8.86961308,12.4968427 L7.89442719,14.4472145 C7.64743794,14.941193 7.0467649,15.1414173 6.5527864,14.8944281 C6.05880791,14.6474388 5.85858356,14.0467658 6.10557281,13.5527873 L7.02819916,11.7075346 C6.34710125,11.3392169 5.68598531,10.8926677 5.0456309,10.3685836 L3.70710678,11.7071077 C3.31658249,12.097632 2.68341751,12.097632 2.29289322,11.7071077 C1.90236893,11.3165834 1.90236893,10.6834184 2.29289322,10.2928941 L4.28997967,8.29580768 C4.29094674,8.29483154 4.29191537,8.2938578 4.29288554,8.29288645 C4.67638317,7.90940417 5.29385138,7.90249654 5.68577043,8.27217123 C7.64460525,10.1020208 9.7708309,10.9991303 12.1043202,10.9991303 C14.4296736,10.9991303 16.4762407,10.1090194 18.2929958,8.29279152 C18.4882692,8.09757481 18.744178,7.99998087 19.0000779,8.00000091 C19.2559672,8.00001801 19.5118617,8.09764908 19.7071068,8.29289413 L21.7071068,10.2928941 C22.0976311,10.6834184 22.0976311,11.3165834 21.7071068,11.7071077 C21.3165825,12.097632 20.6834175,12.097632 20.2928932,11.7071077 L18.9737941,10.3880085 C18.3433845,10.9300743 17.6848987,11.3885716 16.9993948,11.7627226 L17.8944272,13.5527873 C18.1414164,14.0467658 17.9411921,14.6474388 17.4472136,14.8944281 C16.9532351,15.1414173 16.3525621,14.941193 16.1055728,14.4472145 L15.1547694,12.5456077 Z"/>
</svg>
