<svg xmlns="http://www.w3.org/2000/svg" width="18" height="18" viewBox="0 0 18 18">
  <path fill-rule="evenodd" d="M8.99755067,12.929461 C8.9991745,12.9527631 9,12.9762852 9,13 L9,19 C9,19.5522847 8.55228475,20 8,20 C7.44771525,20 7,19.5522847 7,19 L7,13 C7,12.9762852 7.0008255,12.9527631 7.00244933,12.929461 C3.60896116,12.4452857 1,9.5273206 1,6 C1,2.13400675 4.13400675,-1 8,-1 C11.8659932,-1 15,2.13400675 15,6 C15,9.5273206 12.3910388,12.4452857 8.99755067,12.929461 Z M8,11 C10.7614237,11 13,8.76142375 13,6 C13,3.23857625 10.7614237,1 8,1 C5.23857625,1 3,3.23857625 3,6 C3,8.76142375 5.23857625,11 8,11 Z" transform="rotate(45 8 9.5)"/>
</svg>