<svg xmlns="http://www.w3.org/2000/svg" width="24" height="24" viewBox="0 0 24 24">
  <path fill-rule="evenodd" d="M11.9975507,15.929461 C11.9991745,15.9527631 12,15.9762852 12,16 L12,22 C12,22.5522847 11.5522847,23 11,23 C10.4477153,23 10,22.5522847 10,22 L10,16 C10,15.9762852 10.0008255,15.9527631 10.0024493,15.929461 C6.60896116,15.4452857 4,12.5273206 4,9 C4,5.13400675 7.13400675,2 11,2 C14.8659932,2 18,5.13400675 18,9 C18,12.5273206 15.3910388,15.4452857 11.9975507,15.929461 Z M11,14 C13.7614237,14 16,11.7614237 16,9 C16,6.23857625 13.7614237,4 11,4 C8.23857625,4 6,6.23857625 6,9 C6,11.7614237 8.23857625,14 11,14 Z" transform="rotate(45 11 12.5)"/>
</svg>
