<svg xmlns="http://www.w3.org/2000/svg" width="16" height="16" viewBox="0 0 16 16">
  <path fill-rule="evenodd" d="M1,3 L10,3 C10.5522847,3 11,3.44771525 11,4 L11,11 C11,11.5522847 10.5522847,12 10,12 L1,12 C0.44771525,12 6.76353751e-17,11.5522847 0,11 L0,4 C-6.76353751e-17,3.44771525 0.44771525,3 1,3 Z M12.2904242,5.59630456 L14.2904242,3.58226408 C14.6795801,3.19037619 15.3127412,3.18816149 15.7046291,3.57731741 C15.8936805,3.76505088 16,4.02046442 16,4.2868932 L16,10.7131068 C16,11.2653916 15.5522847,11.7131068 15,11.7131068 C14.7335712,11.7131068 14.4781577,11.6067873 14.2904242,11.4177359 L12.2904242,9.40369544 C12.1043989,9.21636415 12,8.96307095 12,8.69906632 L12,6.30093368 C12,6.03692905 12.1043989,5.78363585 12.2904242,5.59630456 Z"/>
</svg>
