<svg xmlns="http://www.w3.org/2000/svg" width="16" height="16" viewBox="0 0 16 16">
  <path fill-rule="evenodd" d="M12,8.2097418 L14.1817592,6.40932105 C14.3947455,6.23356148 14.7098863,6.26373975 14.8856459,6.4767261 C14.9595682,6.56630551 15,6.6788249 15,6.79496695 L15,13.2050331 C15,13.4811754 14.7761424,13.7050331 14.5,13.7050331 C14.383858,13.7050331 14.2713386,13.6646012 14.1817592,13.590679 L12,11.7902582 L12,13 C12,14.1045695 11.1045695,15 10,15 L2,15 C0.8954305,15 1.3527075e-16,14.1045695 0,13 L0,7 C-1.3527075e-16,5.8954305 0.8954305,5 2,5 L10,5 C11.1045695,5 12,5.8954305 12,7 L12,8.2097418 Z M5,8 L5,12 C5,12.2761424 5.22385763,12.5 5.5,12.5 C5.60818511,12.5 5.71345191,12.4649111 5.8,12.4 L8.46666667,10.4 C8.68758057,10.2343146 8.73235209,9.9209139 8.56666667,9.7 C8.53823954,9.66209717 8.5045695,9.62842712 8.46666667,9.6 L5.8,7.6 C5.5790861,7.43431458 5.26568542,7.4790861 5.1,7.7 C5.03508894,7.78654809 5,7.89181489 5,8 Z"/>
</svg>
