<svg xmlns="http://www.w3.org/2000/svg" width="148" height="89" viewBox="0 0 148 89">
  <g fill="none" fill-rule="evenodd">
    <g fill-rule="nonzero" transform="rotate(15 42.915 352.926)">
      <rect width="55" height="74" x="1" y="1" fill="#FFF" stroke="#CED8DD" stroke-width="2" rx="2"/>
      <path fill="#CED8DD" d="M31,34 L46.5,34 C47.3284271,34 48,34.6715729 48,35.5 C48,36.3284271 47.3284271,37 46.5,37 L31,37 L31,52.5 C31,53.3284271 30.3284271,54 29.5,54 C28.6715729,54 28,53.3284271 28,52.5 L28,37 L12.5,37 C11.6715729,37 11,36.3284271 11,35.5 C11,34.6715729 11.6715729,34 12.5,34 L28,34 L28,18.5 C28,17.6715729 28.6715729,17 29.5,17 C30.3284271,17 31,17.6715729 31,18.5 L31,34 Z"/>
      <path stroke="#CED8DD" stroke-linecap="round" stroke-width="3" d="M35,18 C34.9116211,26 38.5782878,30 46,30"/>
      <path stroke="#CED8DD" stroke-linecap="round" stroke-width="3" d="M13.0015601,41 C12.9131812,49 16.5798478,53 24.0015601,53" transform="rotate(180 18.5 47)"/>
    </g>
    <g transform="rotate(-15 59.585 7.32)">
      <rect width="55" height="74" x="1" y="1" fill="#FFF" fill-rule="nonzero" stroke="#CED8DD" stroke-width="2" rx="2"/>
      <path fill="#CED8DD" d="M17.264 9.332C17.264 9.83600252 17.0840018 10.2559983 16.724 10.592 16.3639982 10.9280017 15.9320025 11.096 15.428 11.096 14.8999974 11.096 14.5160012 10.9760012 14.276 10.736 14.0359988 10.4959988 13.8500007 10.2260015 13.718 9.926 13.5859993 9.6259985 13.4660005 9.3560012 13.358 9.116 13.2499995 8.8759988 13.0880011 8.756 12.872 8.756 12.5599984 8.756 12.3680004 8.88799868 12.296 9.152 12.2239996 9.41600132 12.188 9.6679988 12.188 9.908 12.188 10.700004 12.1999999 11.497996 12.224 12.302 12.2480001 13.106004 12.26 13.903996 12.26 14.696L12.296 33.56C12.296 34.4960047 12.2780002 35.4979947 12.242 36.566 12.2059998 37.6340053 12.0320016 38.6239954 11.72 39.536 11.4079984 40.4480046 10.9040035 41.203997 10.208 41.804 9.51199652 42.404003 8.51600648 42.704 7.22 42.704 6.83599808 42.704 6.42800216 42.6560005 5.996 42.56 5.56399784 42.4639995 5.1680018 42.3080011 4.808 42.092 4.4479982 41.8759989 4.1480012 41.6060016 3.908 41.282 3.6679988 40.9579984 3.548 40.5680023 3.548 40.112 3.548 39.6079975 3.70399844 39.1880017 4.016 38.852 4.32800156 38.5159983 4.74799736 38.348 5.276 38.348 5.78000252 38.348 6.15799874 38.4739987 6.41 38.726 6.66200126 38.9780013 6.85399934 39.2539985 6.986 39.554 7.11800066 39.8540015 7.23199952 40.1299987 7.328 40.382 7.42400048 40.6340013 7.57999892 40.76 7.796 40.76 8.01200108 40.76 8.16799952 40.6940007 8.264 40.562 8.36000048 40.4299993 8.42599982 40.268001 8.462 40.076 8.49800018 39.883999 8.51000006 39.686001 8.498 39.482 8.48599994 39.277999 8.48 39.1160006 8.48 38.996 8.48 38.4199971 8.46200018 37.8380029 8.426 37.25 8.38999982 36.6619971 8.372 36.0800029 8.372 35.504L8.372 16.244C8.372 15.2839952 8.37799994 14.2460056 8.39 13.13 8.40200006 12.0139944 8.5579985 10.9820047 8.858 10.034 9.1580015 9.08599526 9.66199646 8.29400318 10.37 7.658 11.0780035 7.02199682 12.1159932 6.704 13.484 6.704 13.8680019 6.704 14.2819978 6.75199952 14.726 6.848 15.1700022 6.94400048 15.5779981 7.09999892 15.95 7.316 16.3220019 7.53200108 16.6339987 7.80799832 16.886 8.144 17.1380013 8.48000168 17.264 8.87599772 17.264 9.332zM28.264 9.332C28.264 9.83600252 28.0840018 10.2559983 27.724 10.592 27.3639982 10.9280017 26.9320025 11.096 26.428 11.096 25.8999974 11.096 25.5160012 10.9760012 25.276 10.736 25.0359988 10.4959988 24.8500007 10.2260015 24.718 9.926 24.5859993 9.6259985 24.4660005 9.3560012 24.358 9.116 24.2499995 8.8759988 24.0880011 8.756 23.872 8.756 23.5599984 8.756 23.3680004 8.88799868 23.296 9.152 23.2239996 9.41600132 23.188 9.6679988 23.188 9.908 23.188 10.700004 23.1999999 11.497996 23.224 12.302 23.2480001 13.106004 23.26 13.903996 23.26 14.696L23.296 33.56C23.296 34.4960047 23.2780002 35.4979947 23.242 36.566 23.2059998 37.6340053 23.0320016 38.6239954 22.72 39.536 22.4079984 40.4480046 21.9040035 41.203997 21.208 41.804 20.5119965 42.404003 19.5160065 42.704 18.22 42.704 17.8359981 42.704 17.4280022 42.6560005 16.996 42.56 16.5639978 42.4639995 16.1680018 42.3080011 15.808 42.092 15.4479982 41.8759989 15.1480012 41.6060016 14.908 41.282 14.6679988 40.9579984 14.548 40.5680023 14.548 40.112 14.548 39.6079975 14.7039984 39.1880017 15.016 38.852 15.3280016 38.5159983 15.7479974 38.348 16.276 38.348 16.7800025 38.348 17.1579987 38.4739987 17.41 38.726 17.6620013 38.9780013 17.8539993 39.2539985 17.986 39.554 18.1180007 39.8540015 18.2319995 40.1299987 18.328 40.382 18.4240005 40.6340013 18.5799989 40.76 18.796 40.76 19.0120011 40.76 19.1679995 40.6940007 19.264 40.562 19.3600005 40.4299993 19.4259998 40.268001 19.462 40.076 19.4980002 39.883999 19.5100001 39.686001 19.498 39.482 19.4859999 39.277999 19.48 39.1160006 19.48 38.996 19.48 38.4199971 19.4620002 37.8380029 19.426 37.25 19.3899998 36.6619971 19.372 36.0800029 19.372 35.504L19.372 16.244C19.372 15.2839952 19.3779999 14.2460056 19.39 13.13 19.4020001 12.0139944 19.5579985 10.9820047 19.858 10.034 20.1580015 9.08599526 20.6619965 8.29400318 21.37 7.658 22.0780035 7.02199682 23.1159932 6.704 24.484 6.704 24.8680019 6.704 25.2819978 6.75199952 25.726 6.848 26.1700022 6.94400048 26.5779981 7.09999892 26.95 7.316 27.3220019 7.53200108 27.6339987 7.80799832 27.886 8.144 28.1380013 8.48000168 28.264 8.87599772 28.264 9.332z" transform="translate(12 12)"/>
    </g>
    <g transform="translate(44)">
      <rect width="58" height="78" x="1" y="1" fill="#FFF" fill-rule="nonzero" stroke="#ECF0F2" stroke-width="2" rx="2"/>
      <path fill="#B4BFC6" d="M9.264,36.92 L9.264,35.72 L20.472,28.76 L21.84,30.92 L13.104,36.2 L21.84,41.36 L20.472,43.52 L9.264,36.92 Z M33.096,26.912 L35.448,27.968 L26.88,47.36 L24.528,46.256 L33.096,26.912 Z M39.432,43.52 L38.064,41.36 L46.8,36.2 L38.064,30.92 L39.432,28.76 L50.64,35.72 L50.64,36.92 L39.432,43.52 Z"/>
    </g>
  </g>
</svg>
