<svg xmlns="http://www.w3.org/2000/svg" xmlns:xlink="http://www.w3.org/1999/xlink" width="16" height="15" viewBox="0 0 16 15">
  <defs>
    <path id="calendar-a" d="M12,1 L13,1 C14.6568542,1 16,2.34314575 16,4 L16,12 C16,13.6568542 14.6568542,15 13,15 L3,15 C1.34314575,15 0,13.6568542 0,12 L0,4 C0,2.34314575 1.34314575,1 3,1 L4,1 C4,0.44771525 4.44771525,1.01453063e-16 5,0 C5.55228475,-1.01453063e-16 6,0.44771525 6,1 L10,1 C10,0.44771525 10.4477153,1.01453063e-16 11,0 C11.5522847,-1.01453063e-16 12,0.44771525 12,1 Z M12,3 L12,4 C12,4.55228475 11.5522847,5 11,5 C10.4477153,5 10,4.55228475 10,4 L10,3 L6,3 L6,4 C6,4.55228475 5.55228475,5 5,5 C4.44771525,5 4,4.55228475 4,4 L4,3 L3,3 C2.44771525,3 2,3.44771525 2,4 L2,12 C2,12.5522847 2.44771525,13 3,13 L13,13 C13.5522847,13 14,12.5522847 14,12 L14,4 C14,3.44771525 13.5522847,3 13,3 L12,3 Z M5,8 C4.44771525,8 4,7.55228475 4,7 C4,6.44771525 4.44771525,6 5,6 C5.55228475,6 6,6.44771525 6,7 C6,7.55228475 5.55228475,8 5,8 Z M5,11 C4.44771525,11 4,10.5522847 4,10 C4,9.44771525 4.44771525,9 5,9 C5.55228475,9 6,9.44771525 6,10 C6,10.5522847 5.55228475,11 5,11 Z M8,8 C7.44771525,8 7,7.55228475 7,7 C7,6.44771525 7.44771525,6 8,6 C8.55228475,6 9,6.44771525 9,7 C9,7.55228475 8.55228475,8 8,8 Z M8,11 C7.44771525,11 7,10.5522847 7,10 C7,9.44771525 7.44771525,9 8,9 C8.55228475,9 9,9.44771525 9,10 C9,10.5522847 8.55228475,11 8,11 Z M11,8 C10.4477153,8 10,7.55228475 10,7 C10,6.44771525 10.4477153,6 11,6 C11.5522847,6 12,6.44771525 12,7 C12,7.55228475 11.5522847,8 11,8 Z M11,11 C10.4477153,11 10,10.5522847 10,10 C10,9.44771525 10.4477153,9 11,9 C11.5522847,9 12,9.44771525 12,10 C12,10.5522847 11.5522847,11 11,11 Z"/>
  </defs>
  <use fill="#07C39F" xlink:href="#calendar-a"/>
</svg>
