<svg xmlns="http://www.w3.org/2000/svg" width="140" height="88" viewBox="0 0 140 88">
  <g fill="none">
    <rect width="138" height="86" x="1" y="1" fill="#FFF" stroke="#ECF0F2" stroke-width="2" rx="4"/>
    <rect width="128" height="2" x="6" y="79" fill="#CED8DD" rx="1"/>
    <circle cx="13" cy="80" r="3" fill="#CED8DD"/>
    <g transform="translate(49 21)">
      <circle cx="21" cy="21" r="21" fill="#ECF0F2"/>
      <path fill="#B4BFC6" d="M11.4547261,15.2675045 L25.9888805,13.1814909 C26.5355633,13.1030282 27.0423437,13.4825957 27.1208063,14.0292785 C27.1352657,14.1300233 27.1342606,14.2323851 27.1178258,14.3328266 L24.7807367,28.6159056 C24.6915543,29.1609422 24.1774182,29.5304851 23.6323816,29.4413027 C23.4256964,29.4074836 23.2348458,29.3096254 23.0867538,29.1615334 L10.8896884,16.964468 C10.4991641,16.5739437 10.4991641,15.9407787 10.8896884,15.5502544 C11.0425269,15.3974159 11.2407721,15.2982122 11.4547261,15.2675045 Z" transform="rotate(45 18.864 21.313)"/>
    </g>
  </g>
</svg>
