<svg xmlns="http://www.w3.org/2000/svg" width="11" height="15" viewBox="0 0 11 15">
  <path fill="#07C39F" fill-rule="evenodd" d="M6.30169884,14.6015892 C9.43389961,10.4005427 11,7.36516518 11,5.49545664 C11,2.46039463 8.53792462,0 5.5,0 C2.46271522,0 0,2.46039463 0,5.49545664 C0,7.36516531 1.5661006,10.4005431 4.6983018,14.6015901 L4.69830292,14.6015893 C5.02841844,15.0443548 5.65496234,15.1356757 6.09772789,14.8055602 C6.17521864,14.7477849 6.24392357,14.67908 6.30169884,14.6015892 Z M1.95219558,5.18954985 C1.95219558,3.24766722 3.52816345,1.67379772 5.47064976,1.67379772 C7.41436393,1.67379772 8.98910394,3.24766722 8.98910394,5.18954985 C8.98910394,7.13020577 7.41436393,8.70407527 5.47064976,8.70407527 C3.52816345,8.70407527 1.95219558,7.13020577 1.95219558,5.18954985 Z M3.9637461,5.151035 C3.9637461,5.98274468 4.63942401,6.65726018 5.47139192,6.65726018 C6.30441228,6.65726018 6.97956396,5.98274468 6.97956396,5.151035 C6.97956396,4.31879958 6.30441228,3.64428408 5.47139192,3.64428408 C4.63942401,3.64428408 3.9637461,4.31879958 3.9637461,5.151035 Z"/>
</svg>
