<svg xmlns="http://www.w3.org/2000/svg" width="103" height="71" viewBox="0 0 103 71">
  <g fill="none" transform="translate(10 19)">
    <path fill="#ED312D" d="M7.95338953,17.2324438 L3.35391712,27.9430497 L0,27.9430497 L5.05358111,16.5130246 C2.67924134,15.2624453 1.09634815,12.9966109 1.09634815,8.81456644 C1.09634815,2.93146527 4.67731962,0 8.93945414,0 L13.2729486,0 L13.2729486,27.9430497 L10.3796275,27.9430497 L10.3796275,17.2324438 L7.95338953,17.2324438 M10.3796275,2.54149971 L8.82268333,2.54149971 C6.48726716,2.54149971 4.22321092,4.14170323 4.22321092,8.79439581 C4.22321092,13.2857233 6.29913641,14.7312853 8.82268333,14.7312853 L10.3796275,14.7312853 L10.3796275,2.54149971 Z"/>
    <path fill="#000" d="M27.9717081,7.9787246 L27.9717081,27.5821514 L24.9992037,27.5821514 L24.9992037,18.790717 L20.4970285,18.790717 L20.4970285,27.5821514 L17.4644061,27.5821514 L17.4644061,7.9787246 L20.4970285,7.9787246 L20.4970285,16.3018178 L24.9992037,16.3018178 L24.9992037,7.9787246 L27.9717081,7.9787246 M43.5623267,31.4359309 L40.8436541,31.4359309 L40.8436541,27.5821514 L32.453844,27.5821514 L32.453844,31.4359309 L29.7351714,31.4359309 L29.7351714,25.0932522 L30.9375327,25.0932522 C32.7277152,20.9317056 32.9414683,14.863341 32.9414683,9.65137194 L32.9414683,7.9787246 L41.999257,7.9787246 L41.999257,25.0932522 L43.5556469,25.0932522 L43.5623267,31.4359309 Z M39.013393,10.4341709 L35.6401015,10.4341709 L35.6401015,10.7820815 C35.6401015,14.9034846 35.4463877,20.9317056 33.8165201,25.0932522 L39.013393,25.0932522 L39.013393,10.4341709 Z M51.9053784,27.8297032 C47.8975073,27.8297032 45.3859081,24.5981486 45.3859081,18.5699276 C45.3859081,12.274083 47.129332,7.68433866 51.2841584,7.68433866 C54.5505733,7.68433866 56.6814248,10.1330944 56.6814248,16.7835402 L56.6814248,18.5097123 L48.5320869,18.5097123 C48.5320869,22.945573 49.7745269,25.2738981 52.1792496,25.2738981 C53.5659995,25.2315733 54.906485,24.7645633 56.020126,23.9357802 L56.6947843,26.2574147 C55.3263933,27.3228475 53.6384946,27.8934642 51.9053784,27.8765374 L51.9053784,27.8297032 Z M48.5654858,15.9672883 L53.5753247,15.9672883 C53.5753247,12.6219936 53.0342621,10.1732379 51.2841584,10.1732379 C49.4204983,10.2000003 48.7591996,12.4881818 48.5654858,15.9940507 L48.5654858,15.9672883 Z M62.8201473,17.8406533 L62.8201473,27.5821514 L59.7875249,27.5821514 L59.7875249,7.9787246 L62.8201473,7.9787246 L62.8201473,17.0444732 L67.495997,7.9787246 L70.5620183,7.9787246 L65.7325337,17.1715944 L71.2834351,27.5553891 L67.9836213,27.5553891 L62.8201473,17.8406533 Z M71.6708627,17.8005098 C71.6708627,11.6585487 74.0421864,7.76462574 78.6178393,7.76462574 C79.8978554,7.71807442 81.1606785,8.07111457 82.231603,8.77490473 L81.8040968,11.6518582 C80.9184871,10.8450096 79.7801968,10.371926 78.5844403,10.3137403 C76.4068304,10.3137403 74.8571202,12.762496 74.8571202,17.6733886 C74.8571202,22.5842812 76.0194028,25.3742569 78.4642042,25.3742569 C79.6743447,25.3915622 80.8486645,24.9629803 81.7640181,24.1699509 L82.4319966,26.4246795 C81.309277,27.4158448 79.8533464,27.9441745 78.3573276,27.9032997 C74.1958215,27.8765374 71.6708627,24.4710274 71.6708627,17.780438 L71.6708627,17.8005098 Z"/>
  </g>
</svg>
