<svg xmlns="http://www.w3.org/2000/svg" width="103" height="71" viewBox="0 0 103 71">
  <g fill="#0079C2" transform="translate(4 11)">
    <path d="M29.3677273,13.8645974 L35.4570409,13.8645974 L35.4570409,15.8051595 L32.5603569,15.8051595 L32.5603569,29.4399988 L29.3677273,29.4399988 L29.3677273,13.8645974 Z M39.0672104,23.5928602 L39.6143854,15.8051595 L39.7976234,15.8051595 L40.3447983,23.5928602 L39.0672104,23.5928602 Z M35.531662,29.4399988 L38.6575698,29.4399988 L38.9532333,25.3035266 L40.4586344,25.3035266 L40.7557085,29.4399988 L43.8802057,29.4399988 L42.2152648,13.8645974 L37.1966029,13.8645974 L35.531662,29.4399988 Z M48.4525511,23.9886771 L48.4525511,26.9249037 C48.4525511,27.3207206 48.7666935,27.4355997 48.9499316,27.4355997 C49.2509553,27.4355997 49.4604307,27.1930466 49.4604307,26.9249037 L49.4604307,23.2994026 C49.4604307,22.8141589 49.3687411,22.2780107 48.1776236,22.2780107 L46.8816978,22.2780107 L46.8816978,20.5673443 L48.2299571,20.5673443 C49.1331696,20.5673443 49.4604307,20.3630384 49.4604307,19.4054835 L49.4604307,16.3158555 C49.4604307,16.0477126 49.2509553,15.8051595 48.9497905,15.8051595 C48.7666935,15.8051595 48.4525511,15.9072437 48.4525511,16.3158555 L48.4525511,18.8564028 L45.2585109,18.8564028 L45.2585109,16.6478354 C45.2585109,15.5626065 45.3894154,13.8645974 47.6276274,13.8645974 L50.2718125,13.8645974 C52.5101656,13.8645974 52.6541887,15.5626065 52.6541887,16.6478354 L52.6541887,19.137203 C52.6541887,20.8352121 51.4368338,21.294866 50.4812878,21.2564812 L50.4812878,21.409745 C52.6279514,21.3587029 52.6541887,22.9671476 52.6541887,23.5162283 L52.6541887,26.6568984 C52.6541887,27.7547847 52.5101656,29.4399988 50.2718125,29.4399988 L47.6276274,29.4399988 C45.3894154,29.4399988 45.2585109,27.7546471 45.2585109,26.6567608 L45.2585109,23.9886771 L48.4525511,23.9886771 Z M54.7486598,13.8645974 L62.1443376,13.8645974 L62.1443376,29.4399988 L58.9504384,29.4399988 L58.9504384,15.8051595 L57.9425589,15.8051595 L57.9425589,29.4399988 L54.7486598,29.4399988 L54.7486598,13.8645974 Z M67.4325667,22.431137 L67.4325667,15.8052971 L67.8515173,15.8052971 C68.191756,15.8052971 68.4404462,16.0859598 68.4404462,16.5839984 L68.4404462,21.6522981 C68.4404462,22.1503367 68.191756,22.4309994 67.8513762,22.4309994 L67.4325667,22.431137 Z M64.2386676,29.4399988 L67.4325667,29.4399988 L67.4325667,24.1418033 L69.2649467,24.1418033 C71.4903222,24.1418033 71.6343453,22.4565892 71.6343453,21.3585654 L71.6343453,16.6478354 C71.6343453,15.5626065 71.4903222,13.8645974 69.2650878,13.8645974 L64.2386676,13.8645974 L64.2386676,29.4399988 Z M77.930454,26.9249037 C77.930454,27.1930466 77.7209787,27.4355997 77.4199549,27.4355997 C77.2365758,27.4355997 76.9225744,27.3207206 76.9225744,26.9249037 L76.9225744,16.3158555 C76.9225744,15.9072437 77.2367169,15.8051595 77.4199549,15.8051595 C77.7209787,15.8051595 77.930454,16.0477126 77.930454,16.3158555 L77.930454,26.9249037 Z M73.7286753,26.6568984 C73.7286753,27.7547847 73.8725574,29.4399988 76.0979329,29.4399988 L78.7550956,29.4399988 C80.98033,29.4399988 81.1243531,27.7546471 81.1243531,26.6567608 L81.1243531,16.6478354 C81.1243531,15.5626065 80.9804711,13.8645974 78.7550956,13.8645974 L76.0979329,13.8645974 C73.8726984,13.8645974 73.7286753,15.5626065 73.7286753,16.6478354 L73.7286753,26.6568984 Z M91.5175733,13.8645974 L95.679996,13.8645974 L95.679996,29.4399988 L92.486238,29.4399988 L92.486238,19.6734888 L92.3683111,19.6734888 L90.719028,29.4399988 L88.1665325,29.4399988 L86.530368,19.6734888 L86.4125822,19.6734888 L86.4125822,29.4399988 L83.2186831,29.4399988 L83.2186831,13.8645974 L87.3681282,13.8645974 L89.4493396,24.8184204 L91.5175733,13.8645974 Z M25.2287207,8.11968058 C24.2510282,3.94496121 21.8005196,0.549080707 21.46282,0 C20.9287637,0.778701279 18.9745071,3.77904006 17.9810158,7.09828865 C16.8958349,10.8133541 16.736154,14.1071505 17.1106705,17.3371098 C17.4823658,20.5798641 18.8867673,23.9120452 18.8867673,23.9120452 C19.632979,25.6483014 20.750745,27.5248889 21.4786188,28.4441967 C22.5453207,27.0909624 24.9970989,23.0565744 25.7615075,17.7967637 C26.1869469,14.8603995 26.2052848,12.2943999 25.2287207,8.11968058 L25.2287207,8.11968058 Z M21.46282,27.3973525 C20.9825079,26.5164295 20.2362962,24.8438727 20.1656247,22.2394884 C20.1472868,19.7373258 21.177454,17.5796629 21.4786188,17.1329415 C21.7469165,17.5798005 22.6343301,19.456388 22.7404079,22.0225252 C22.8123489,24.5248253 21.9589309,26.503497 21.46282,27.3973525 Z M24.9447653,15.2050367 C24.9080895,16.8009616 24.7130024,18.4861757 24.4643122,19.4947728 C24.5533215,17.7585165 24.3400376,15.3200534 23.9315254,13.4050811 C23.5231544,11.5027662 22.367302,8.31119156 21.4446232,6.84294067 C20.5924747,8.24735457 19.5425591,11.0048651 18.992845,13.3922862 C18.4404509,15.7795697 18.4247931,18.6776867 18.4247931,19.5458148 C18.2780899,18.8180181 17.9116138,16.2009764 18.0150114,13.5837972 C18.1014817,11.4262718 18.6197392,9.19211458 18.9038357,8.17072266 C19.9876059,4.76204724 21.2141298,2.57893206 21.4444821,2.23415725 C21.6749755,2.57893206 23.2194504,5.2727432 24.0205348,8.09409075 C24.8178106,10.9155759 24.978761,13.6220443 24.9447653,15.2051743"/>
    <path d="M23.3234268,29.8014912 L15.9105144,29.8014912 L15.9105144,34.7493555 C15.9171258,34.7493555 15.9223305,34.7363404 15.9288012,34.7363404 C17.6753328,32.9962259 20.5079605,32.9962259 22.2557581,34.7363404 C24.0022897,36.4635796 24.0022897,39.2815741 22.2557581,41.0218285 C22.2478807,41.0347037 22.2400033,41.0347037 22.2322666,41.0477189 C22.2231232,41.0477189 22.2139798,41.060734 22.2061024,41.0737492 C20.4635095,42.7879732 18.1870823,43.6450153 15.9105144,43.6450153 C13.6236777,43.6450153 11.3367004,42.7879732 9.59284154,41.0477189 C6.51742113,37.9958711 6.15323216,33.2558296 8.49760194,29.8014912 C8.81944758,29.3262614 9.18619364,28.8827101 9.59284154,28.4768826 C11.3367004,26.7367682 13.6236777,25.8795862 15.9105144,25.8795862 L15.9105144,13.9839994 C7.12313674,13.9839994 0,21.0615937 0,29.8014912 C0,38.5413887 7.12313674,45.6319981 15.9105144,45.6319981 C20.4922057,45.6319981 24.6196807,43.696936 27.5226424,40.6191978 L27.5226424,29.8014912 L23.3234268,29.8014912 Z M95.679996,34.4563043 L29.5524789,34.4563043 L29.5524789,45.6319981 L95.679996,45.6319981 L95.679996,34.4563043 Z M89.9618494,42.2581298 L90.8009329,42.2581298 L90.8009329,40.5711957 L89.9618494,40.5711957 L89.9618494,42.2581298 Z M89.9618494,39.306065 L91.2313764,39.306065 L92.081432,39.7278685 L92.2910271,40.1495321 L92.5009034,40.9929992 L92.5009034,41.4146627 C92.4788186,44.4360018 90.5249427,43.3299921 88.4716146,43.5234004 L88.4716146,36.564902 L89.9618494,36.564902 L89.9618494,39.306065 Z M78.9340555,36.564902 L78.9340555,37.8300326 L77.8742642,37.8300326 L77.8742642,43.5234004 L76.1852658,43.5234004 L76.1852658,37.8300326 L75.1256151,37.8300326 L75.1256151,36.564902 L78.9340555,36.564902 Z M63.4684734,41.6255645 L63.6782091,41.6255645 L64.0976806,41.4146627 L64.0976806,38.4625979 L63.4684734,38.4625979 L63.4684734,41.6255645 Z M61.7685029,38.4627379 L61.128183,38.4627379 L61.128183,41.4146627 L61.5586265,41.6255645 L61.7685029,41.6255645 L61.7685029,38.4627379 Z M63.4684734,36.564902 L63.4684734,37.1974673 L64.5282647,37.1974673 L65.1574719,37.6191309 L65.5879154,38.0409344 L65.7976511,38.8844014 L65.7976511,41.2039009 L65.588056,42.047368 L65.1574719,42.4690316 L64.5282647,42.8906951 L63.4684734,42.8906951 L63.4684734,43.5232604 L61.7685029,43.5232604 L61.7685029,42.8906951 L60.7087116,42.8906951 L60.0685324,42.4690316 L59.649061,42.047368 L59.4393252,41.2039009 L59.4393252,38.8844014 L59.6489203,38.0409344 L60.0685324,37.6191309 L60.7087116,37.1974673 L61.7685029,37.1974673 L61.7685029,36.564902 L63.4684734,36.564902 Z M49.6875291,36.564902 L49.6875291,37.8300326 L48.415892,37.8300326 L48.415892,39.306065 L49.6875291,39.306065 L49.6875291,40.5711957 L48.415892,40.5711957 L48.415892,42.2581298 L49.8995155,42.2581298 L49.8995155,43.5232604 L46.7202822,43.5232604 L46.7202822,36.564902 L49.6875291,36.564902 Z M34.427322,39.306065 L35.2751269,39.306065 L35.2751269,36.564902 L36.7587503,36.564902 L36.7587503,43.5234004 L35.2751269,43.5234004 L35.2751269,40.5711957 L34.427322,40.5711957 L34.427322,43.5234004 L32.7317122,43.5234004 L32.7317122,36.564902 L34.427322,36.564902 L34.427322,39.306065 Z"/>
  </g>
</svg>
