<svg xmlns="http://www.w3.org/2000/svg" width="340" height="374" viewBox="0 0 340 374">
  <path fill="#FFF" d="M340,124.034066 C340,89.3683446 319.534803,57.9712368 287.818518,43.978758 L205.318518,7.58169915 C182.819003,-2.34455733 157.180997,-2.34455733 134.681482,7.58169915 L52.1814819,43.978758 C20.4651967,57.9712368 2.4176383e-14,89.3683446 2.84217094e-14,124.034066 L0,0 L340,0 L340,124.034066 Z M340,249.965934 L340,374 L0,374 L0,249.965934 C3.26670359e-14,284.631655 20.4651967,316.028763 52.1814819,330.021242 L134.681482,366.418301 C157.180997,376.344557 182.819003,376.344557 205.318518,366.418301 L287.818518,330.021242 C319.534803,316.028763 340,284.631655 340,249.965934 Z"/>
</svg>
